<svg width="74" height="74" viewBox="0 0 74 74" fill="none" xmlns="http://www.w3.org/2000/svg">
<path d="M67 2H7C4.23858 2 2 4.23858 2 7V67C2 69.7614 4.23858 72 7 72H67C69.7614 72 72 69.7614 72 67V7C72 4.23858 69.7614 2 67 2Z" stroke="#10689B" stroke-width="4" stroke-miterlimit="10"/>
<path d="M52.26 34.797C53.9166 34.5202 55.0833 34.4972 57.0667 34.3818C58 34.3818 58 35.1892 58 35.812V50.575C58 51.4516 57.2767 52.1666 56.39 52.1666H17.61C16.7233 52.1666 16 51.4516 16 50.575V35.812C16 35.7889 16 35.7428 16 35.7198C17.2833 35.6506 18.4266 35.5813 19.92 35.7659" stroke="#10689B" stroke-width="4" stroke-miterlimit="10" stroke-linecap="round" stroke-linejoin="round"/>
<path d="M39.5432 37.9803C43.6032 37.7957 44.9566 37.1268 46.8232 36.3425" stroke="#10689B" stroke-width="4" stroke-miterlimit="10" stroke-linecap="round" stroke-linejoin="round"/>
<path d="M24.9132 36.896C27.4099 37.4496 29.9299 37.7264 34.3166 37.911" stroke="#10689B" stroke-width="4" stroke-miterlimit="10" stroke-linecap="round" stroke-linejoin="round"/>
<path d="M21.8566 29.8377C23.6607 29.8377 25.1233 28.3918 25.1233 26.6083C25.1233 24.8247 23.6607 23.3789 21.8566 23.3789C20.0525 23.3789 18.59 24.8247 18.59 26.6083C18.59 28.3918 20.0525 29.8377 21.8566 29.8377Z" stroke="#10689B" stroke-width="4" stroke-miterlimit="10" stroke-linecap="round" stroke-linejoin="round"/>
<path d="M22.4402 42.0861L21.9735 29.8145" stroke="#10689B" stroke-width="4" stroke-miterlimit="10" stroke-linecap="round" stroke-linejoin="round"/>
<path d="M51.5133 28.2921C53.3174 28.2921 54.7799 26.8463 54.7799 25.0627C54.7799 23.2792 53.3174 21.8333 51.5133 21.8333C49.7091 21.8333 48.2466 23.2792 48.2466 25.0627C48.2466 26.8463 49.7091 28.2921 51.5133 28.2921Z" stroke="#10689B" stroke-width="4" stroke-miterlimit="10" stroke-linecap="round" stroke-linejoin="round"/>
<path d="M48.5265 40.2639L50.9065 28.2229" stroke="#10689B" stroke-width="4" stroke-miterlimit="10" stroke-linecap="round" stroke-linejoin="round"/>
<path d="M36.9766 33.044C38.7808 33.044 40.2433 31.5982 40.2433 29.8147C40.2433 28.0311 38.7808 26.5852 36.9766 26.5852C35.1725 26.5852 33.71 28.0311 33.71 29.8147C33.71 31.5982 35.1725 33.044 36.9766 33.044Z" stroke="#10689B" stroke-width="4" stroke-miterlimit="10" stroke-linecap="round" stroke-linejoin="round"/>
<path d="M36.9767 45.3157V33.0439" stroke="#10689B" stroke-width="4" stroke-miterlimit="10" stroke-linecap="round" stroke-linejoin="round"/>
</svg>
