<svg width="458" height="382" viewBox="0 0 458 382" fill="none" xmlns="http://www.w3.org/2000/svg">
<path d="M56.6984 0H55.6917V114.412H56.6984V0Z" fill="#C7C7C7"/>
<path d="M103.576 152.713L99.7702 159.736H12.6141L8.8186 152.713L45.9181 131.178H66.4763L103.576 152.713Z" fill="#DFE4FA"/>
<path d="M69.0518 110.428L66.4745 131.178H45.9162L43.3389 110.428H69.0518Z" fill="#DBDBDB"/>
<path d="M103.576 152.713L99.7605 159.736H12.6144L8.80884 152.713H103.576Z" fill="#DBDBDB"/>
<path d="M158.433 0H157.426V91.7542H158.433V0Z" fill="#C7C7C7"/>
<path d="M205.309 130.046L201.503 137.078H114.347L110.552 130.046L147.651 108.511H168.209L205.309 130.046Z" fill="#DFE4FA"/>
<path d="M170.787 87.7695L168.21 108.511H147.651L145.074 87.7695H170.787Z" fill="#DBDBDB"/>
<path d="M205.308 130.055L201.492 137.079H114.346L110.541 130.055H205.308Z" fill="#DBDBDB"/>
<path d="M26.1363 188.54L16.1995 201.971L21.1327 204.503C21.8241 204.88 22.3779 205.41 22.7332 206.034C23.0885 206.658 23.2314 207.352 23.1462 208.04C23.0654 208.806 23.0352 209.576 23.0556 210.345C23.0838 211.045 22.8806 211.738 22.4684 212.347C22.0561 212.957 21.451 213.459 20.7199 213.798L15.686 216.085L24.6262 230.048L29.66 227.76C30.3762 227.438 31.1843 227.288 31.9958 227.325C32.8073 227.362 33.5909 227.586 34.261 227.971C35.0832 228.453 35.9369 228.895 36.8181 229.297C37.5339 229.627 38.1259 230.118 38.5277 230.714C38.9296 231.311 39.1255 231.989 39.0934 232.673L38.9122 237.511L57.759 238L57.9301 233.146C57.9566 232.46 58.2098 231.794 58.6613 231.222C59.1128 230.649 59.7449 230.193 60.4873 229.905C60.9303 229.727 61.3632 229.542 61.7961 229.347C62.229 229.153 62.6519 228.951 63.0647 228.74C63.7595 228.381 64.5594 228.191 65.3752 228.191C66.191 228.191 66.9909 228.381 67.6857 228.74L72.629 231.272L82.5557 217.841L77.6125 215.266C76.9203 214.89 76.3658 214.36 76.0104 213.736C75.655 213.112 75.5126 212.417 75.5989 211.729C75.6796 210.966 75.7098 210.199 75.6896 209.433C75.6623 208.732 75.8671 208.038 76.2811 207.429C76.6952 206.82 77.3023 206.318 78.0353 205.98L83.0692 203.693L74.1593 189.764L69.065 192.051C68.326 192.376 67.4941 192.521 66.6621 192.472C65.8301 192.423 65.0308 192.181 64.3533 191.773C63.5982 191.334 62.813 190.929 62.0176 190.566C61.2843 190.245 60.6724 189.759 60.2508 189.162C59.8292 188.566 59.6147 187.882 59.6316 187.189L59.8631 182.343L41.0265 181.845L40.8452 186.699C40.8112 187.392 40.5485 188.064 40.0864 188.639C39.6243 189.214 38.9808 189.671 38.2276 189.958C37.8048 190.118 37.392 190.295 36.9792 190.481C36.5665 190.667 36.1637 190.861 35.7711 191.064C35.064 191.428 34.2503 191.621 33.4203 191.621C32.5903 191.621 31.7766 191.428 31.0695 191.064L26.1363 188.54ZM40.372 199.413C42.9938 197.835 46.1389 196.986 49.3656 196.985C52.5922 196.983 55.7385 197.829 58.3625 199.404C60.9865 200.978 62.9564 203.202 63.9956 205.764C65.0349 208.325 65.0912 211.095 64.1567 213.685C63.2223 216.275 61.3439 218.554 58.7855 220.202C56.2271 221.851 53.117 222.786 49.8922 222.877C46.6673 222.968 43.4895 222.209 40.8052 220.708C38.1208 219.207 36.0646 217.038 34.9254 214.507C33.7248 211.839 33.6079 208.913 34.5927 206.184C35.5775 203.455 37.609 201.075 40.372 199.413Z" fill="#DFE4FA"/>
<path d="M439.414 57.4046C438.992 57.1972 438.647 56.8956 438.418 56.5333C438.188 56.1711 438.084 55.7625 438.115 55.3532C438.115 55.1253 438.115 54.8974 438.115 54.6694C438.115 54.4415 438.115 54.2051 438.115 53.9772C438.084 53.5679 438.188 53.1593 438.418 52.7971C438.647 52.4348 438.992 52.1332 439.414 51.9258L442.364 50.4992L436.827 42.4372L433.837 43.8976C433.412 44.1022 432.927 44.2027 432.438 44.1877C431.948 44.1728 431.474 44.0431 431.068 43.8132C430.605 43.5684 430.132 43.332 429.638 43.121C429.203 42.9376 428.836 42.6569 428.578 42.3098C428.321 41.9628 428.182 41.5628 428.178 41.1541V38.2754H417.104V41.1203C417.092 41.5253 416.948 41.9197 416.687 42.2606C416.426 42.6015 416.058 42.8758 415.624 43.0535C415.131 43.2645 414.617 43.5009 414.194 43.7457C413.789 43.9755 413.314 44.1053 412.825 44.1202C412.335 44.1351 411.851 44.0346 411.426 43.8301L408.476 42.4034L402.929 50.4654L405.889 51.9005C406.319 52.1071 406.67 52.412 406.902 52.7797C407.134 53.1473 407.236 53.5626 407.197 53.9772C407.197 54.2051 407.197 54.433 407.197 54.661C407.197 54.8889 407.197 55.1168 407.197 55.3448C407.23 55.7563 407.125 56.1672 406.893 56.5312C406.662 56.8952 406.314 57.1977 405.889 57.4046L402.929 58.8312L408.476 66.8932L411.416 65.4665C411.84 65.2627 412.324 65.1618 412.813 65.1752C413.302 65.1886 413.777 65.3158 414.184 65.5425C414.648 65.799 415.129 66.0329 415.624 66.2432C416.059 66.427 416.424 66.708 416.68 67.0551C416.936 67.4023 417.072 67.802 417.074 68.2101V71.055H428.148V68.2017C428.152 67.7929 428.29 67.3929 428.548 67.0459C428.806 66.6988 429.172 66.4181 429.608 66.2347C430.102 66.0226 430.583 65.7887 431.048 65.534C431.454 65.3072 431.927 65.1799 432.414 65.1664C432.902 65.153 433.384 65.254 433.806 65.4581L436.756 66.8847L442.293 58.8228L439.414 57.4046ZM422.661 62.2924C420.869 62.2924 419.117 61.8468 417.627 61.012C416.137 60.1771 414.976 58.9905 414.29 57.6022C413.604 56.214 413.425 54.6863 413.775 53.2125C414.124 51.7387 414.987 50.3849 416.254 49.3224C417.522 48.2599 419.136 47.5362 420.894 47.2431C422.651 46.9499 424.473 47.1004 426.129 47.6754C427.785 48.2505 429.2 49.2243 430.195 50.4737C431.191 51.7231 431.722 53.1921 431.722 54.6947C431.721 55.6939 431.485 56.683 431.027 57.6055C430.569 58.528 429.899 59.3657 429.054 60.0706C428.21 60.7755 427.208 61.3339 426.106 61.7137C425.003 62.0935 423.823 62.2873 422.631 62.2839L422.661 62.2924Z" fill="#DFE4FA"/>
<path d="M189.654 269.176C189.259 268.983 188.932 268.707 188.702 268.375C188.473 268.044 188.35 267.669 188.345 267.285C188.345 266.906 188.345 266.534 188.345 266.154C188.296 265.773 188.323 265.388 188.425 265.015C188.537 264.641 188.766 264.3 189.09 264.027C189.431 263.776 189.81 263.563 190.217 263.394L192.563 262.246V262.288L186.965 254.251H187.096L184.016 255.771C183.449 256.008 182.801 256.074 182.183 255.957C181.601 255.804 181.049 255.583 180.542 255.298L179.777 254.935C179.495 254.811 179.24 254.649 179.022 254.454C178.576 254.065 178.305 253.557 178.257 253.019V250.022L178.488 250.216L167.414 250.3L167.756 250.022V253.027C167.724 253.458 167.561 253.876 167.283 254.239C167.005 254.602 166.62 254.9 166.166 255.104L165.41 255.484L164.655 255.855C164.363 256.009 164.044 256.123 163.709 256.193C163.031 256.318 162.322 256.249 161.696 255.999L158.575 254.505L159.179 254.369L153.672 262.448L153.49 261.883L156.611 263.385C157.05 263.638 157.407 263.979 157.648 264.377C157.889 264.776 158.007 265.218 157.991 265.665V266.407V267.142C157.996 267.428 157.949 267.713 157.85 267.986C157.64 268.556 157.203 269.048 156.611 269.379L153.49 270.882L153.661 270.35L159.158 278.429L158.595 278.302L161.726 276.825C162.354 276.578 163.063 276.515 163.739 276.647C164.062 276.718 164.371 276.829 164.655 276.977L165.421 277.357L166.176 277.728C166.469 277.863 166.734 278.037 166.961 278.243C167.414 278.659 167.684 279.192 167.726 279.754V282.768L167.454 282.54L178.529 282.633L178.368 282.768V279.771C178.415 279.246 178.679 278.75 179.113 278.37C179.569 278.033 180.077 277.75 180.623 277.525C181.126 277.249 181.671 277.03 182.244 276.875C182.844 276.755 183.476 276.818 184.026 277.053L187.116 278.555H187.046L192.623 270.51L189.654 269.176ZM189.654 269.176L192.603 270.595L187.096 278.665V278.707L183.995 277.23C183.47 277.016 182.872 276.962 182.304 277.078C181.723 277.225 181.173 277.447 180.673 277.736C180.148 277.959 179.663 278.244 179.233 278.581C178.843 278.934 178.612 279.391 178.579 279.872V282.861V282.996H178.418L167.343 283.089H167.082V282.802V279.822C167.04 279.382 166.82 278.968 166.458 278.648C166.274 278.49 166.064 278.357 165.833 278.251L165.048 277.88L164.263 277.508C164.042 277.397 163.8 277.317 163.548 277.272C163.042 277.177 162.512 277.231 162.048 277.424L159.028 278.935L158.675 279.112L158.464 278.809L152.876 270.772L152.645 270.434L153.047 270.24L156.068 268.746C156.469 268.514 156.764 268.175 156.903 267.783C156.972 267.586 157.006 267.381 157.004 267.176V266.416V265.656C157.006 265.451 156.972 265.246 156.903 265.048C156.762 264.66 156.463 264.325 156.058 264.103L153.037 262.6L152.604 262.398L152.856 262.043L158.434 254.006L158.665 253.677L159.048 253.863L162.068 255.357C162.517 255.543 163.029 255.594 163.518 255.501C163.764 255.457 164 255.377 164.212 255.264L164.998 254.893L165.793 254.521C166.017 254.422 166.221 254.294 166.397 254.141C166.753 253.83 166.967 253.424 167.001 252.993V250.03V249.735H167.333L178.408 249.819H178.66V250.013V252.993C178.697 253.458 178.92 253.898 179.294 254.243C179.717 254.579 180.195 254.863 180.713 255.087C181.188 255.371 181.71 255.593 182.264 255.745C182.814 255.855 183.393 255.804 183.905 255.602L187.016 254.141L187.096 254.099V254.167L192.603 262.246L190.248 263.377C189.843 263.541 189.467 263.751 189.13 264.002C188.807 264.265 188.578 264.598 188.466 264.964C188.36 265.334 188.329 265.716 188.375 266.095C188.375 266.475 188.375 266.855 188.375 267.226C188.365 267.617 188.477 268.003 188.702 268.345C188.926 268.688 189.255 268.974 189.654 269.176Z" fill="#DFE4FA"/>
<path d="M172.902 274.064C171.36 274.059 169.844 273.734 168.488 273.118C167.132 272.501 165.98 271.613 165.133 270.533C164.286 269.452 163.771 268.212 163.635 266.924C163.498 265.636 163.744 264.34 164.35 263.151C164.956 261.962 165.904 260.918 167.108 260.11C168.313 259.303 169.737 258.759 171.254 258.525C172.771 258.292 174.333 258.377 175.801 258.773C177.269 259.169 178.597 259.863 179.668 260.794C181.399 262.311 182.34 264.342 182.285 266.441C182.204 268.476 181.185 270.405 179.443 271.822C177.7 273.239 175.37 274.034 172.942 274.039L172.902 274.064ZM172.902 274.064C174.081 274.064 175.248 273.865 176.334 273.481C177.42 273.096 178.403 272.533 179.226 271.825C180.048 271.117 180.694 270.279 181.124 269.358C181.554 268.438 181.761 267.455 181.731 266.467C181.663 264.539 180.702 262.708 179.052 261.364C177.402 260.02 175.193 259.267 172.892 259.266C170.548 259.266 168.299 260.047 166.642 261.437C164.984 262.827 164.053 264.712 164.053 266.678C164.053 268.644 164.984 270.529 166.642 271.919C168.299 273.309 170.548 274.09 172.892 274.09L172.902 274.064Z" fill="#DFE4FA"/>
<path d="M8.27429 369.549L63.4554 369.347L118.636 369.271L228.999 369.136L339.361 369.271L394.542 369.347L449.723 369.549L394.542 369.76L339.361 369.836L228.999 369.971L118.636 369.836L63.4554 369.76L8.27429 369.549Z" fill="#263238"/>
<path d="M440.706 75.9849H273.783V217.453H440.706V75.9849Z" fill="#DFE4FA"/>
<path d="M350.527 67.4504C356.095 61.9716 365.629 60.6547 374.851 62.2164C384.073 63.7782 395.117 67.6783 396.124 80.6112C396.95 91.1128 393.104 101.353 393.104 113.07C393.104 124.787 408.92 153.329 383.61 167.258C360.867 179.769 314.787 168.28 313.368 142.524C312.25 122.111 341.124 103.235 344.165 95.1564C347.205 87.0776 344.426 73.444 350.527 67.4504Z" fill="#263238"/>
<path d="M346.37 78.9736C346.198 84.8154 345.192 90.7247 342.342 96.2372C341.603 97.6333 340.638 98.9372 339.473 100.112C338.356 101.294 337.168 102.408 335.98 103.489C333.584 105.675 331.218 107.845 328.932 110.099C324.393 114.515 320.642 119.46 317.797 124.779C315.069 130.123 313.57 135.852 313.378 141.663C313.094 138.73 313.199 135.78 313.69 132.866C314.234 129.938 315.135 127.064 316.378 124.289C319 118.73 322.717 113.58 327.372 109.052C329.657 106.764 332.084 104.578 334.5 102.417C336.916 100.255 339.362 98.1957 340.863 95.6631C342.401 93.0738 343.573 90.3427 344.356 87.5252C345.239 84.7127 345.912 81.8566 346.37 78.9736Z" fill="#263238"/>
<path d="M395.489 89.4331C395.318 95.393 394.865 101.345 395.056 107.262C395.139 110.21 395.435 113.15 395.942 116.067C396.466 118.937 397.493 121.808 398.349 124.712C399.204 127.615 399.969 130.562 400.533 133.533C401.078 136.519 401.307 139.538 401.218 142.558C401.054 145.591 400.376 148.59 399.204 151.464C397.853 154.288 395.836 156.855 393.274 159.011C395.519 156.697 397.226 154.051 398.308 151.21C399.247 148.385 399.714 145.465 399.698 142.532C399.412 136.629 398.311 130.773 396.416 125.083C395.61 122.187 394.583 119.317 394.09 116.27C393.628 113.284 393.446 110.272 393.546 107.262C393.759 101.291 394.408 95.3373 395.489 89.4331Z" fill="#263238"/>
<path d="M358.875 139.552C335.719 160.927 316.822 171.192 298.197 171.192C280.488 171.192 242.653 135.137 239.874 130.384C237.478 126.282 268.537 103.835 273.309 106.629C281.363 111.306 307.197 138.379 309.936 138.505C312.674 138.632 322.762 133.044 347.055 123.504C361.814 117.722 374.983 124.737 358.875 139.552Z" fill="#A7857D"/>
<path d="M243.48 133.939C240.077 130.849 225.791 115.426 222.962 110.394C220.133 105.363 213.276 90.3871 217.656 88.1838C222.035 85.9805 224.452 90.2267 224.452 90.2267C224.452 90.2267 222.75 83.5239 227.401 81.6414C232.053 79.7589 235.556 86.4701 235.556 86.4701C235.556 86.4701 234.409 79.4803 239.201 77.8763C243.993 76.2724 246.188 83.5324 246.188 83.5324C246.188 83.5324 244.778 77.1757 249.389 77.2517C254.937 77.3445 255.953 89.3066 259.568 94.6671C260.383 95.8828 278.284 118.304 278.284 118.304L243.48 133.939Z" fill="#A7857D"/>
<path d="M245.996 82.9158C246.771 91.7038 248.926 95.4435 255.057 102.425C255.178 102.56 254.966 102.737 254.826 102.611C248.05 96.2286 244.546 91.8726 245.463 82.9243C245.533 82.4853 245.956 82.4938 245.996 82.9158Z" fill="#263238"/>
<path d="M235.525 85.7777C237.277 94.8527 239.552 98.9216 245.382 106.629C245.462 106.739 245.251 106.865 245.16 106.764C238.707 99.597 235.324 95.1819 234.992 85.9212C234.972 85.4991 235.445 85.3556 235.525 85.7777Z" fill="#263238"/>
<path d="M224.773 90.6148C227.229 99.3014 229.515 103.852 236.3 110.723C236.462 110.892 236.19 111.103 236.019 110.951C228.287 104.502 225.387 98.8371 224.471 90.6908C224.41 90.1505 224.622 90.0661 224.773 90.6148Z" fill="#263238"/>
<path d="M286.265 120.448C286.265 120.448 286.033 109.398 284.654 104.561C283.275 99.7237 270.277 83.2959 265.838 85.457C260.169 88.2428 265.465 98.964 268.858 103.945C268.858 103.945 255.77 110.394 257.552 118.785C259.334 127.177 286.265 120.448 286.265 120.448Z" fill="#A7857D"/>
<path d="M264.58 86.6473C261.56 92.3202 266.594 98.6094 269.463 103.632C269.509 103.705 269.534 103.785 269.535 103.867C269.537 103.949 269.515 104.03 269.472 104.104C269.429 104.177 269.365 104.241 269.286 104.289C269.208 104.338 269.116 104.37 269.02 104.384C263.724 107.397 257.311 112.927 257.231 118.583C257.231 118.616 257.215 118.649 257.186 118.672C257.158 118.696 257.12 118.709 257.08 118.709C257.04 118.709 257.001 118.696 256.973 118.672C256.944 118.649 256.929 118.616 256.929 118.583C256.033 112.505 261.801 106.629 267.842 103.649C264.822 98.525 260.12 92.0417 264.52 86.5967L264.58 86.6473Z" fill="#263238"/>
<path d="M318.947 132.292L337.552 161.4C337.552 161.4 362.782 140.861 366.809 132.292C370.836 123.724 366.497 117.502 348.546 122.086C338.291 124.634 328.373 128.054 318.947 132.292Z" fill="#8190A7"/>
<path d="M341.851 155.33C340.935 153.751 340.13 152.122 339.173 150.552C338.217 148.982 337.26 147.428 336.264 145.892C334.25 142.785 332.236 139.67 330.142 136.606C328.954 134.917 327.706 133.178 326.407 131.541C326.357 131.465 326.186 131.541 326.236 131.6C329.649 138.007 333.787 144.144 337.915 150.239C339.113 152.004 340.472 153.684 341.72 155.423C341.76 155.465 341.901 155.389 341.851 155.33Z" fill="#263238"/>
<path d="M366.808 132.292C362.781 140.861 337.552 161.4 337.552 161.4L325.017 141.823L366.365 122.652C368.741 124.729 368.711 128.249 366.808 132.292Z" fill="#263238"/>
<path d="M323.184 181.297C323.184 181.297 312.955 201.827 316.57 217.445H429.348C425.684 174.991 400.444 138.505 385.534 126.695C373.513 117.173 360.858 118.025 352.048 122.896C349.974 124.053 327.091 150.569 324.614 154.764C314.788 171.319 323.184 181.297 323.184 181.297Z" fill="#8190A7"/>
<path d="M352.833 121.647C352.833 121.647 345.786 138.641 349.873 139.527C360.042 141.722 373.683 127.801 374.499 126.383C374.7 126.02 375.606 116.506 376.281 109.103C376.714 104.341 377.046 100.45 377.046 100.45L351.957 107.667L352.763 120.71L352.833 121.647Z" fill="#A7857D"/>
<path d="M351.917 107.667L352.723 120.71C357.827 120.111 369.052 117.789 376.241 109.103C376.674 104.341 377.006 100.45 377.006 100.45L373.865 101.294L351.917 107.667Z" fill="#263238"/>
<path d="M333.233 89.4078C332.931 96.0346 333.716 101.395 335.639 104.958C337.286 108 339.908 110.601 343.212 112.47C346.516 114.338 350.373 115.402 354.355 115.544C357.375 115.637 366.074 114.97 372.366 110.951C377.259 107.828 380.209 102.197 381.88 92.2949C385.706 69.6539 373.353 62.0394 361.181 61.1277C349.009 60.2159 334.239 66.5642 333.233 89.4078Z" fill="#A7857D"/>
<path d="M340.207 84.3593C340.841 84.2833 341.425 84.1313 342.039 84.0131C342.707 83.9628 343.339 83.7351 343.841 83.3631C343.967 83.2185 344.035 83.0441 344.035 82.8651C344.035 82.686 343.967 82.5116 343.841 82.367C343.528 82.1227 343.143 81.9526 342.726 81.8739C342.308 81.7953 341.873 81.8111 341.465 81.9196C340.597 82.0353 339.812 82.4174 339.261 82.9917C339.131 83.1246 339.052 83.2877 339.036 83.459C339.019 83.6304 339.066 83.8019 339.168 83.9506C339.271 84.0992 339.426 84.2181 339.612 84.2911C339.797 84.3641 340.005 84.3879 340.207 84.3593Z" fill="#263238"/>
<path d="M357.997 84.9249C357.379 84.8336 356.768 84.7152 356.165 84.5703C355.497 84.5237 354.866 84.292 354.372 83.9119C354.246 83.7673 354.179 83.5929 354.179 83.4138C354.179 83.2347 354.246 83.0603 354.372 82.9157C354.688 82.6721 355.076 82.5037 355.496 82.428C355.915 82.3523 356.351 82.372 356.759 82.4852C357.634 82.6025 358.424 82.9912 358.973 83.5742C359.1 83.7092 359.174 83.8732 359.186 84.0444C359.198 84.2156 359.148 84.3859 359.042 84.5326C358.936 84.6793 358.779 84.7954 358.592 84.8654C358.406 84.9355 358.198 84.9563 357.997 84.9249Z" fill="#263238"/>
<path d="M353.548 90.6318C353.548 90.5727 353.689 90.7078 353.689 90.7753C353.538 92.3201 353.689 94.152 355.33 94.7092C355.33 94.7092 355.33 94.802 355.33 94.7936C353.277 94.4728 353.116 92.0753 353.548 90.6318Z" fill="#263238"/>
<path d="M355.302 89.07C358.322 89.0025 358.241 94.0254 355.463 94.0929C352.684 94.1604 352.835 89.1291 355.302 89.07Z" fill="#263238"/>
<path d="M356.477 89.3484C356.99 89.6355 357.484 90.142 358.128 90.1926C358.772 90.2433 359.417 89.7368 359.9 89.2302C359.95 89.1796 360.001 89.2302 360.001 89.2893C360.001 90.2517 359.558 91.2394 358.319 91.3745C357.081 91.5095 356.406 90.6316 356.125 89.6861C356.074 89.4835 356.266 89.2302 356.477 89.3484Z" fill="#263238"/>
<path d="M343.632 89.9731C343.632 89.914 343.491 90.0491 343.491 90.1082C343.491 91.6699 343.3 93.4849 341.618 93.9746C341.568 93.9746 341.568 94.0674 341.618 94.059C343.682 93.8226 343.984 91.442 343.632 89.9731Z" fill="#263238"/>
<path d="M341.982 88.3444C338.962 88.1502 338.751 93.1731 341.519 93.3504C344.288 93.5276 344.479 88.5132 341.982 88.3444Z" fill="#263238"/>
<path d="M340.754 88.6399C340.271 88.8931 339.747 89.3574 339.213 89.3743C338.68 89.3912 338.096 88.8256 337.703 88.2937C337.703 88.2346 337.613 88.2937 337.603 88.3444C337.532 89.3068 337.854 90.3113 338.952 90.5393C340.049 90.7672 340.724 89.9399 341.036 88.9944C341.056 88.8087 340.905 88.5386 340.754 88.6399Z" fill="#263238"/>
<path d="M353.368 102.72C352.935 103.1 352.512 103.615 351.848 103.683C351.157 103.687 350.472 103.575 349.834 103.354C349.822 103.345 349.806 103.34 349.79 103.341C349.774 103.342 349.759 103.348 349.749 103.358C349.738 103.368 349.732 103.381 349.733 103.395C349.734 103.408 349.742 103.421 349.754 103.43C350.033 103.727 350.403 103.957 350.825 104.093C351.246 104.23 351.704 104.269 352.15 104.206C352.522 104.109 352.852 103.923 353.1 103.671C353.349 103.419 353.505 103.113 353.549 102.788C353.555 102.769 353.552 102.748 353.542 102.73C353.532 102.713 353.514 102.698 353.492 102.69C353.471 102.682 353.446 102.681 353.424 102.686C353.401 102.692 353.381 102.704 353.368 102.72Z" fill="#263238"/>
<path d="M345.787 96.9542C345.787 96.9542 345.344 99.2757 345.323 100.373C345.323 100.474 345.636 100.525 346.079 100.559C346.079 100.559 346.078 100.559 346.129 100.559C347.24 100.743 348.39 100.669 349.455 100.345C350.52 100.02 351.458 99.458 352.169 98.7186C352.26 98.6173 352.099 98.4991 351.978 98.5666C350.286 99.4906 348.285 99.9345 346.27 99.8329C346.189 99.5206 347.186 95.8821 346.975 95.8652C345.944 95.9189 344.928 96.0922 343.954 96.3802C344.709 91.5262 346.381 86.8156 347.035 81.9784C347.035 81.8096 346.763 81.7505 346.703 81.9025C344.528 86.7312 343.521 92.3028 342.585 97.2919C342.504 97.9251 345.223 97.14 345.787 96.9542Z" fill="#263238"/>
<path d="M346.912 99.9849C347.556 100.812 348.444 101.487 349.489 101.943C350.065 102.174 350.712 102.25 351.342 102.163C352.721 101.952 352.852 100.914 352.691 100.01C352.592 99.5295 352.43 99.0594 352.207 98.6089C350.663 99.5297 348.807 100.012 346.912 99.9849Z" fill="#263238"/>
<path d="M349.492 101.944C350.068 102.174 350.714 102.251 351.344 102.164C352.723 101.953 352.854 100.914 352.693 100.011C351.978 99.9841 351.273 100.16 350.692 100.511C350.111 100.862 349.688 101.367 349.492 101.944Z" fill="#FF98B9"/>
<path d="M381.386 90.2605C378.416 90.3364 369.989 84.1233 368.459 72.1865C368.459 72.1865 370.724 82.8232 371.852 84.3174C372.98 85.8116 367.14 80.8141 365.741 71.2073C365.741 71.2073 359.801 75.5464 354.505 77.2347C349.21 78.9231 345.897 79.1426 345.444 78.8387C344.991 78.5348 352.774 75.8165 354.707 73.571C354.707 73.571 340.884 80.3244 334.279 81.2362C333.514 81.3375 334.803 71.3677 344.478 64.9519C354.153 58.5361 367.452 60.14 372.224 63.3479C372.224 63.3479 377.44 63.5759 383.722 69.5273C390.004 75.4788 384.578 90.1761 381.386 90.2605Z" fill="#263238"/>
<path d="M377.469 93.9071C377.469 93.9071 382.996 86.5374 386.953 88.1582C390.909 89.779 387.053 100.289 382.613 101.885C382.061 102.124 381.456 102.267 380.836 102.305C380.215 102.343 379.592 102.275 379.004 102.105C378.416 101.936 377.875 101.668 377.414 101.318C376.953 100.968 376.581 100.543 376.321 100.07L377.469 93.9071Z" fill="#A7857D"/>
<path d="M385.756 91.1724C385.837 91.1724 385.847 91.2483 385.756 91.2737C382.645 92.4808 381.125 95.0218 380.098 97.6304C380.994 96.6005 382.243 96.0095 383.874 96.8875C383.954 96.9297 383.874 97.0479 383.793 97.031C383.233 96.9161 382.644 96.9466 382.104 97.1185C381.565 97.2903 381.101 97.5954 380.773 97.9934C380.23 98.6758 379.771 99.4027 379.403 100.163C379.273 100.408 378.749 100.306 378.85 100.028C378.845 100.005 378.845 99.9827 378.85 99.9603C378.568 96.5498 381.437 91.6704 385.756 91.1724Z" fill="#263238"/>
<path d="M394.261 131.33C405.416 142.127 436.687 181.213 429.438 191.774C422.481 201.904 406.705 204.757 397.624 191.149C391.09 181.415 380.106 152.376 377.378 138.447C375.163 127.168 383.952 121.343 394.261 131.33Z" fill="#A7857D"/>
<path d="M383.84 165.933L420.808 154.545C420.808 154.545 400.059 130.73 390.505 126.197C380.95 121.664 372.997 124.399 375.917 139.94C377.488 148.809 380.143 157.519 383.84 165.933Z" fill="#8190A7"/>
<path d="M414.247 150.121C412.233 150.67 410.22 151.109 408.206 151.683C406.193 152.257 404.26 152.839 402.306 153.456C398.35 154.688 394.403 155.921 390.487 157.246C388.292 157.989 386.097 158.791 383.953 159.635C383.852 159.635 383.893 159.812 383.953 159.787C392.007 157.845 399.82 155.262 407.592 152.688C409.847 151.936 412.012 150.999 414.237 150.248C414.388 150.214 414.317 150.096 414.247 150.121Z" fill="#263238"/>
<path d="M385.927 165.207C385.195 165.343 384.478 165.529 383.783 165.764C382.776 163.932 380.39 155.879 379.836 153.811C378.729 149.691 377.823 145.529 376.665 141.41C376.665 141.291 376.393 141.325 376.413 141.41C376.755 143.697 377.178 145.977 377.651 148.239C377.148 147.158 376.645 146.069 376.252 144.964C376.256 144.956 376.258 144.947 376.257 144.939C376.256 144.931 376.253 144.923 376.247 144.916C376.242 144.908 376.234 144.903 376.225 144.899C376.217 144.895 376.207 144.893 376.197 144.893C376.187 144.893 376.177 144.895 376.168 144.899C376.159 144.903 376.152 144.908 376.146 144.916C376.141 144.923 376.137 144.931 376.136 144.939C376.136 144.947 376.137 144.956 376.141 144.964C376.599 146.337 377.16 147.685 377.823 148.999C378.215 153.22 382.796 166.634 382.927 166.583C383.963 166.189 384.971 165.747 385.947 165.258C386.058 165.283 386.058 165.199 385.927 165.207Z" fill="#263238"/>
<path d="M367.643 85.7436L357.122 123.403C356.669 124.508 357.344 125.395 358.633 125.378L378.718 128.805C379.421 128.751 380.092 128.531 380.652 128.169C381.212 127.807 381.637 127.319 381.879 126.762L392.4 89.1035C392.853 87.9976 392.178 87.1112 390.89 87.1365L370.804 83.7007C370.101 83.7547 369.43 83.9754 368.87 84.3372C368.31 84.6989 367.885 85.1867 367.643 85.7436Z" fill="#A6A6A6"/>
<path d="M369.365 85.955L358.874 123.614C358.421 124.72 359.096 125.606 360.384 125.589L380.47 129.017C381.172 128.963 381.842 128.744 382.402 128.384C382.961 128.024 383.388 127.538 383.631 126.982L394.111 89.3233C394.564 88.209 393.89 87.331 392.601 87.3479L372.526 83.9121C371.823 83.9691 371.154 84.1909 370.595 84.5523C370.036 84.9136 369.609 85.3998 369.365 85.955Z" fill="#DBDBDB"/>
<path d="M375.728 87.5756C375.738 87.9133 375.627 88.2458 375.409 88.53C375.191 88.8142 374.877 89.037 374.506 89.1697C374.136 89.3024 373.726 89.3389 373.331 89.2744C372.935 89.2099 372.572 89.0474 372.288 88.8079C372.004 88.5684 371.812 88.2629 371.737 87.931C371.662 87.599 371.708 87.2559 371.868 86.9459C372.028 86.6359 372.295 86.3733 372.635 86.1921C372.975 86.0109 373.372 85.9194 373.775 85.9295C374.294 85.9317 374.791 86.1061 375.157 86.4146C375.523 86.723 375.728 87.1405 375.728 87.5756Z" fill="#263238"/>
<path d="M402.991 194.559C409.525 204.689 426.822 198.915 429.439 191.773C435.58 175.016 431.775 147.158 428.11 131.6C426.932 126.594 386.38 131.6 386.621 137.011C386.903 143.554 390.185 174.637 402.991 194.559Z" fill="#A7857D"/>
<path d="M427.656 139.037C429.698 131.655 429.822 123.991 428.018 116.565C425.884 108.469 418.907 91.2986 390.858 83.6418C384.203 81.8184 373.179 83.1775 382.804 89.4583C389.61 93.924 395.529 95.0299 398.912 98.2378C398.912 98.2378 385.14 101.361 383.227 107.017C381.552 111.968 380.297 117.012 379.471 122.111C380.55 122.45 381.653 122.732 382.774 122.955C382.182 127.88 383.548 132.83 386.66 137.036L427.656 139.037Z" fill="#A7857D"/>
<path d="M424.503 109.111C420.335 106.579 411.415 101.193 402.264 98.9809C392.116 96.4484 371.789 94.0002 369.675 100.289C368.124 104.907 375.786 106.435 375.786 106.435C375.786 106.435 367.128 106.891 366.816 111.314C366.534 115.35 372.544 116.236 372.544 116.236C372.544 116.236 367.349 117.266 367.963 121.2C368.708 125.919 379.491 122.981 385.179 127.219C386.458 128.147 424.503 109.111 424.503 109.111Z" fill="#A7857D"/>
<path d="M400.917 108.377C396.528 106.486 385.232 104.35 375.949 106.283C375.738 106.283 375.667 106.477 375.869 106.477C384.276 106.287 392.68 106.95 400.897 108.453C400.947 108.469 400.967 108.394 400.917 108.377Z" fill="#263238"/>
<path d="M397.634 116.886C393.607 115.586 381.878 113.813 372.555 116.042C372.344 116.093 372.283 116.253 372.485 116.245C380.88 115.682 389.324 115.926 397.654 116.971C397.667 116.968 397.679 116.962 397.687 116.952C397.694 116.943 397.697 116.931 397.694 116.92C397.691 116.909 397.684 116.899 397.672 116.893C397.661 116.886 397.647 116.884 397.634 116.886Z" fill="#263238"/>
<path d="M399.285 187.502C398.983 186.658 398.691 185.813 398.369 185.045C397.704 183.357 397.13 181.668 396.546 179.98C395.358 176.603 394.221 173.176 393.224 169.732C391.235 162.867 389.725 155.91 388.704 148.897C388.422 146.956 388.18 145.014 387.928 143.072C387.677 141.131 387.596 139.113 387.153 137.163C387.153 137.062 385.975 135.576 385.512 134.842C385.032 134.078 384.611 133.288 384.254 132.478C383.501 130.825 382.991 129.101 382.734 127.345C382.728 127.334 382.719 127.325 382.708 127.318C382.696 127.312 382.682 127.308 382.668 127.308C382.654 127.308 382.64 127.312 382.629 127.318C382.617 127.325 382.608 127.334 382.603 127.345C382.472 129.344 382.772 131.345 383.489 133.255C384.109 134.851 385.18 136.299 386.61 137.475C386.61 137.729 386.68 140.852 386.801 142.6C386.922 144.347 387.113 146.095 387.345 147.834C387.818 151.328 388.402 154.815 389.137 158.285C390.573 165.303 392.571 172.233 395.117 179.026C395.117 179.136 395.207 179.246 395.248 179.355C395.248 179.609 395.248 179.862 395.248 180.115C395.263 180.74 395.323 181.363 395.429 181.981C395.635 183.211 395.996 184.419 396.506 185.585C396.502 185.596 396.5 185.607 396.502 185.617C396.503 185.628 396.508 185.639 396.516 185.647C396.523 185.656 396.533 185.664 396.544 185.669C396.556 185.674 396.569 185.676 396.582 185.676C396.595 185.676 396.607 185.674 396.619 185.669C396.631 185.664 396.64 185.656 396.648 185.647C396.655 185.639 396.66 185.628 396.662 185.617C396.663 185.607 396.662 185.596 396.657 185.585C396.3 184.365 396.058 183.123 395.932 181.871L395.751 180.588C396.305 181.955 396.889 183.323 397.463 184.682C397.865 185.628 398.278 186.548 398.741 187.468C399.204 188.388 399.567 189.283 400.11 190.136C400.11 190.203 400.271 190.136 400.251 190.085C400 189.182 399.597 188.354 399.285 187.502Z" fill="#263238"/>
<path d="M273.782 217.445V194.753L243.026 217.445H273.782Z" fill="#DFE4FA"/>
<path d="M115.709 265.555C124.568 297.878 142.891 336.626 150.714 342.915C160.61 350.868 226.081 365.455 229.343 365.751C237.397 366.434 253.636 317.632 245.018 316.577C231.93 314.99 184.249 312.82 181.4 310.364C178.551 307.907 158.315 286.516 137.636 262.482C123.36 245.877 110.201 245.497 115.709 265.555Z" fill="#AD6359"/>
<path d="M222.859 363.117C223.816 363.522 237.498 369.296 245.955 371.348C252.267 372.884 270.57 376.894 273.278 371.229C275.131 367.38 264.691 363.961 257.382 361.403C253.526 360.052 248.774 356.676 249.911 354.599C251.925 350.969 261.821 354.599 268.345 357.79C280.96 363.936 297.763 375.003 305.465 369.609C308.375 367.583 304.992 363.885 300.049 360.264C308.103 364.484 316.64 367.946 319.972 365.801C321.895 364.577 321.986 362.897 320.919 360.99C323.395 361.665 325.58 361.53 327.111 360.145C329.718 357.849 328.449 354.472 325.59 351.003C326.081 350.96 326.553 350.82 326.966 350.594C327.379 350.368 327.722 350.062 327.966 349.703C333.493 342.637 305.817 322.351 296.263 320.452C268.124 314.838 238.464 315.885 238.464 315.885C227.41 323.322 222.829 363.1 222.859 363.117Z" fill="#AD6359"/>
<path d="M264.238 341.396C270.938 342.273 277.339 344.337 283.014 347.449C290.152 351.399 294.884 356.026 300.864 360.677C300.888 360.703 300.9 360.736 300.899 360.769C300.897 360.802 300.882 360.833 300.856 360.858C300.83 360.883 300.795 360.9 300.756 360.905C300.717 360.91 300.677 360.904 300.643 360.888C297.794 358.676 285.974 350.353 282.924 348.462C277.406 344.98 271.016 342.596 264.238 341.489C264.147 341.48 264.167 341.379 264.238 341.396Z" fill="#263238"/>
<path d="M269.483 331.376C276.883 333.064 284.464 334.753 291.33 337.724C298.841 340.932 304.72 346.166 310.459 351.231C313.936 354.253 317.328 357.348 320.637 360.517C320.768 360.652 320.557 360.863 320.416 360.728C314.55 355.528 308.509 350.463 302.294 345.533C296.541 340.955 289.767 337.374 282.36 334.997C278.132 333.638 273.782 332.566 269.433 331.486C269.373 331.469 269.403 331.359 269.483 331.376Z" fill="#263238"/>
<path d="M277.388 322.622C284.576 323.863 290.848 324.918 297.211 328.142C305.638 332.422 313.772 339.623 316.621 342.181C319.773 345.001 322.813 347.905 325.793 350.851C325.914 350.969 325.672 351.155 325.541 351.037C318.712 344.577 311.391 338.495 303.624 332.828C299.97 330.084 295.834 327.829 291.362 326.142C286.827 324.649 282.149 323.486 277.378 322.664C277.378 322.664 277.327 322.613 277.388 322.622Z" fill="#263238"/>
<path d="M233.933 313.943L213.797 367.431C213.797 367.431 159.281 354.379 149.364 345.372C139.447 336.365 121.013 289.85 115.607 267.302C110.2 244.754 123.792 245.353 136.286 259.527C148.78 273.701 179.889 308.194 181.591 308.946C183.292 309.697 233.933 313.943 233.933 313.943Z" fill="#8190A7"/>
<path opacity="0.1" d="M233.933 313.943L213.797 367.431C213.797 367.431 159.281 354.379 149.364 345.372C139.447 336.365 121.013 289.85 115.607 267.302C110.2 244.754 123.792 245.353 136.286 259.527C148.78 273.701 179.889 308.194 181.591 308.946C183.292 309.697 233.933 313.943 233.933 313.943Z" fill="black"/>
<path d="M208.564 343.667C211.01 337.361 213.507 331.072 215.662 324.69C216.89 321.068 218.138 317.438 219.326 313.808C219.377 313.665 219.105 313.589 219.044 313.724C216.296 319.971 213.557 326.243 211.151 332.591C208.745 338.94 206.299 345.254 204.003 351.56C202.704 355.173 201.526 358.803 200.49 362.475C200.49 362.543 200.61 362.585 200.641 362.518C203.641 356.347 206.107 350.015 208.564 343.667Z" fill="#263238"/>
<path d="M186.303 360.078L183.887 359.369C179.346 358.01 174.715 356.549 170.356 355.055C169.792 354.869 169.238 354.675 168.695 354.481C167.819 354.177 166.943 353.865 166.097 353.552L164.829 353.088L164.376 352.919L163.067 352.413C161.335 351.746 159.694 351.079 158.164 350.403L157.157 349.931C154.765 348.899 152.511 347.657 150.432 346.225C150.241 346.081 150.049 345.938 149.878 345.794C149.707 345.651 149.526 345.507 149.375 345.372C139.408 336.365 121.024 289.85 115.618 267.302L115.437 266.525V266.357C115.074 264.668 114.752 262.524 114.49 260.228C113.735 249.009 120.068 247.177 127.89 252.107C147.391 287.2 177.262 345.186 186.303 360.078Z" fill="#263238"/>
<path d="M158.025 369.06L39.226 369.583C39.3266 367.439 56.2404 304.716 69.6908 281.569C86.9368 251.887 95.8669 249.49 101.132 247.903C107.928 245.86 120.029 246.873 122.899 248.013C126.161 249.287 136.53 264.466 140.245 275.601C147.675 297.997 159.696 367.692 158.025 369.06Z" fill="#DFE4FA"/>
<path d="M95.0398 250.25C95.0398 250.25 110.141 297.144 110.896 300.259C112.034 304.784 119.565 369.347 119.565 369.347L36.7578 369.583C36.7578 369.583 54.8293 309.815 68.2798 283.645C82.9585 254.943 95.0398 250.25 95.0398 250.25Z" fill="#8190A7"/>
<g opacity="0.1">
<path d="M95.0387 250.25C95.0387 250.25 110.14 297.144 110.895 300.259C112.033 304.784 119.564 369.347 119.564 369.347L36.7567 369.583C36.7567 369.583 54.8282 309.815 68.2787 283.645C82.9574 254.943 95.0387 250.25 95.0387 250.25Z" fill="black"/>
</g>
<path d="M123.983 248.738C124.426 250.232 138.35 288.33 139.317 297.828C140.394 308.363 149.918 369.583 149.918 369.583H161.999C161.999 369.583 144.511 281.628 139.709 272.333C129.883 253.364 123.983 248.738 123.983 248.738Z" fill="#8190A7"/>
<path opacity="0.1" d="M123.983 248.738C124.426 250.232 138.35 288.33 139.317 297.828C140.394 308.363 149.918 369.583 149.918 369.583H161.999C161.999 369.583 144.511 281.628 139.709 272.333C129.883 253.364 123.983 248.738 123.983 248.738Z" fill="black"/>
<path d="M79.404 261.216C59.5102 279.087 11.145 346.892 26.4881 359.259C41.8313 371.627 127.014 354.979 150.935 345.415C158.053 342.578 131.011 305.367 122.645 304.497C115.678 303.78 80.0785 317.43 79.0416 315.716C77.8838 313.775 83.5418 299.449 92.1296 273.507C101.986 243.606 88.2032 253.314 79.404 261.216Z" fill="#AD6359"/>
<path d="M158.002 292.493C175.299 290.467 180.151 292.18 193.632 283.975C202.502 278.589 210.415 281.029 205.351 289.58C197.075 303.577 175.41 310.111 167.094 310.567L158.002 292.493Z" fill="#AD6359"/>
<path d="M112.054 306.439C112.054 306.439 131.494 297.389 149.677 293.708C162.241 291.176 190.33 288.179 217.211 311.436C223.584 316.949 228.003 328.599 213.697 322.765C203.529 318.62 198.596 313.42 192.142 311.909C192.142 311.909 195.666 327.282 188.83 332.423C182.855 336.915 176.507 341.045 169.832 344.782C168.735 343.916 167.706 342.991 166.752 342.013C166.752 342.013 159.825 346.309 146.797 345.263L112.054 306.439Z" fill="#AD6359"/>
<path d="M162.14 292.932C168.181 295.557 180.775 301.306 189.152 309.022C198.464 317.599 213.636 336.204 206.015 341.945C200.438 346.124 193.934 339.412 193.934 339.412C193.934 339.412 198.273 348.217 192.242 351.062C186.756 353.662 182.064 348.243 182.064 348.243C182.064 348.243 183.604 353.958 177.735 355.604C170.688 357.579 168.614 345.271 159.402 342.097C157.297 341.337 162.14 292.932 162.14 292.932Z" fill="#AD6359"/>
<path d="M176.719 315.725C181.884 318.975 191.367 328.877 193.985 339.134C194.045 339.37 193.874 339.531 193.764 339.328C189.216 330.933 183.469 323.033 176.648 315.801C176.568 315.725 176.648 315.725 176.719 315.725Z" fill="#263238"/>
<path d="M166.671 323.854C170.789 327.045 180.021 337.614 182.246 348.09C182.296 348.327 182.105 348.479 182.014 348.268C177.983 339.689 172.805 331.522 166.581 323.921C166.52 323.871 166.581 323.812 166.671 323.854Z" fill="#263238"/>
<path d="M192.143 311.807C197.781 313.2 201.445 315.522 206.238 318.291C208.57 319.688 210.993 320.976 213.496 322.149C215.792 323.187 219.185 324.757 221.621 323.128C222.99 322.225 222.97 320.595 222.628 319.27C221.939 317.351 220.893 315.536 219.527 313.892C219.527 313.825 219.597 313.749 219.658 313.808C220.976 315.306 222.11 316.913 223.041 318.603C223.65 319.761 223.829 321.047 223.554 322.292C222.718 324.892 219.054 325.238 216.507 324.521C214.963 324.045 213.479 323.443 212.077 322.723C210.708 322.064 209.379 321.355 208.05 320.612C205.372 319.093 202.804 317.446 200.147 315.902C197.564 314.448 194.874 313.134 192.092 311.968C192.071 311.959 192.054 311.945 192.044 311.927C192.035 311.909 192.033 311.889 192.038 311.87C192.044 311.851 192.058 311.834 192.077 311.823C192.096 311.812 192.119 311.806 192.143 311.807Z" fill="#263238"/>
<path d="M203.953 328.438C202.493 325.745 194.59 314.517 192.033 311.917C192.023 311.904 192.019 311.889 192.022 311.874C192.024 311.859 192.032 311.845 192.045 311.834C192.057 311.824 192.074 311.817 192.092 311.815C192.11 311.813 192.128 311.816 192.144 311.824C196.543 315.319 203.601 324.597 205.232 327.568C206.863 330.54 208.735 334.263 208.735 337.53C208.735 342.468 204.829 343.439 203.389 343.65C201.666 343.912 199.888 343.667 198.355 342.958C196.562 342.039 195.013 340.821 193.805 339.379C193.744 339.311 193.855 339.218 193.926 339.286C195.939 341.236 199.362 343.152 202.554 342.797C203.262 342.741 203.949 342.567 204.575 342.284C205.201 342.001 205.753 341.616 206.198 341.151C207.07 339.963 207.406 338.553 207.144 337.175C206.674 334.133 205.595 331.179 203.953 328.438Z" fill="#263238"/>
<path d="M112.053 306.438L139.317 354.557C139.317 354.557 32.6797 374.632 23.4778 359.065C14.2759 343.498 55.6945 282.582 74.3499 264.837C95.9854 244.273 98.744 251.271 93.9819 269.497C88.9481 288.575 79.3536 316.163 79.3536 316.163L112.053 306.438Z" fill="#8190A7"/>
<path opacity="0.1" d="M112.053 306.438L139.317 354.557C139.317 354.557 32.6797 374.632 23.4778 359.065C14.2759 343.498 55.6945 282.582 74.3499 264.837C95.9854 244.273 98.744 251.271 93.9819 269.497C88.9481 288.575 79.3536 316.163 79.3536 316.163L112.053 306.438Z" fill="black"/>
<path d="M46.945 328.969C56.7811 323.242 67.582 318.777 78.9905 315.724C82.2222 314.88 85.4842 314.078 88.7461 313.293C88.8468 313.293 88.8871 313.403 88.7461 313.428C83.0569 314.972 77.4799 316.793 72.0438 318.881C66.6139 320.907 61.2445 323.015 55.9355 325.204C52.9152 326.445 49.9754 327.804 47.0155 329.13C46.9956 329.126 46.9772 329.118 46.9618 329.107C46.9465 329.096 46.9348 329.082 46.9277 329.066C46.9207 329.05 46.9186 329.033 46.9216 329.016C46.9246 328.999 46.9327 328.983 46.945 328.969Z" fill="#263238"/>
<path d="M111.77 306.312C111.236 306.43 82.0702 314.509 81.1138 314.88C81.2346 314.509 86.4698 301.508 87.2551 299.601C87.3256 299.415 87.396 299.221 87.4766 299.035C88.0001 298.191 88.5438 297.347 89.0371 296.502C89.6613 295.396 90.2855 294.274 90.8996 293.126H90.8392L88.8257 296.393C88.5136 296.891 88.2216 297.406 87.9296 297.921C88.4431 296.578 88.9364 295.228 89.4297 293.869C90.215 291.716 90.9197 289.538 91.6144 287.36C91.6144 287.284 91.5137 287.267 91.4835 287.36C89.9331 291.15 88.2417 294.898 86.6812 298.689C85.1207 302.479 79.1204 316.417 79.1707 316.417C79.2211 316.417 111.287 306.911 111.911 306.7C111.941 306.692 111.97 306.68 111.994 306.663C112.019 306.646 112.039 306.625 112.054 306.601C112.069 306.578 112.078 306.552 112.081 306.526C112.084 306.499 112.081 306.472 112.072 306.447C112.063 306.421 112.048 306.398 112.027 306.377C112.007 306.356 111.982 306.339 111.954 306.327C111.926 306.314 111.896 306.307 111.864 306.304C111.832 306.301 111.8 306.304 111.77 306.312Z" fill="#263238"/>
<path d="M113.737 337.673C110.717 332.312 107.787 326.918 104.556 321.633C102.713 318.637 100.891 315.631 99.0184 312.651C98.9479 312.542 98.7063 312.651 98.7667 312.744C101.525 318.231 104.304 323.719 107.364 329.113C110.425 334.507 113.405 339.834 116.516 345.152C118.288 348.175 120.171 351.149 122.164 354.075C122.164 354.135 122.325 354.075 122.295 354.075C119.758 348.487 116.768 343.093 113.737 337.673Z" fill="#263238"/>
<path d="M140.697 355.3C139.63 353.814 138.281 351.687 137.143 350.235C136.841 349.855 136.489 349.931 136.73 350.327C137.546 351.678 138.22 353.189 139.016 354.548C137.526 354.802 135.996 355.021 134.526 355.283C132.794 355.587 131.072 355.899 129.341 356.194C125.945 356.757 122.548 357.32 119.152 357.883C112.266 358.958 105.353 359.903 98.4128 360.719C84.5095 362.426 70.51 363.528 56.4707 364.02C52.5443 364.138 48.6078 364.197 44.6814 364.155C40.8084 364.163 36.9373 364.006 33.0834 363.682C32.9727 363.682 32.9526 363.826 33.0834 363.843C36.3996 364.43 39.766 364.797 43.1511 364.94C46.705 365.084 50.269 365.151 53.833 365.118C60.8804 365.05 67.9982 364.662 75.0557 364.121C89.0498 363.041 103.004 361.454 116.837 359.402C120.716 358.84 124.585 358.229 128.445 357.571C130.398 357.241 132.341 356.912 134.284 356.549C136.227 356.186 140.878 355.553 140.697 355.3Z" fill="#263238"/>
<path d="M124.005 266.239C116.957 267.868 104.343 259.131 99.188 251.887C98.8356 251.389 99.5303 246.02 100.003 239.461C100.275 235.485 100.456 231.019 100.275 226.984C100.275 226.14 130.911 232.235 130.911 232.235C130.911 232.235 128.294 240.829 128.656 247.903C128.688 248.472 128.783 249.037 128.938 249.591C128.966 249.68 128.986 249.77 128.998 249.861C129.754 252.993 130.821 264.66 124.005 266.239Z" fill="#AD6359"/>
<path d="M102.147 227.085C103.859 233.906 109.678 250.325 125.887 250.131C126.926 250.123 127.963 250.044 128.988 249.895C129 249.802 129 249.709 128.988 249.616C128.838 249.061 128.741 248.496 128.696 247.928C128.343 240.845 130.951 232.243 130.951 232.243C130.951 232.243 108.782 227.853 102.147 227.085Z" fill="#263238"/>
<path d="M134.566 214.802C134.224 221.032 139.237 226.283 145.761 226.536C152.285 226.79 157.842 221.927 158.175 215.697C158.507 209.467 153.493 204.216 146.979 203.971C140.466 203.726 134.898 208.572 134.566 214.802Z" fill="#455A64"/>
<path d="M156.978 216.041C157.352 209.111 151.774 203.269 144.52 202.994C137.265 202.719 131.082 208.114 130.708 215.045C130.334 221.975 135.911 227.816 143.166 228.091C150.42 228.367 156.604 222.971 156.978 216.041Z" fill="#C7C7C7"/>
<path d="M104.272 194.66C98.9961 203 98.6638 229.516 104.866 236.455C113.856 246.501 131.525 250.19 142.418 240.592C153.019 231.255 152.717 196.694 145.519 190.135C134.938 180.452 112.064 182.343 104.272 194.66Z" fill="#AD6359"/>
<path d="M130.568 215.157C130.568 215.089 130.397 215.25 130.407 215.326C130.518 217.107 130.296 219.167 128.394 219.791C128.333 219.791 128.343 219.901 128.394 219.893C130.75 219.572 131.011 216.837 130.568 215.157Z" fill="#263238"/>
<path d="M128.617 213.333C125.184 213.181 125.073 218.947 128.244 219.082C131.416 219.217 131.496 213.46 128.617 213.333Z" fill="#263238"/>
<path d="M142.488 215.377C142.488 215.309 142.649 215.469 142.649 215.537C142.548 217.327 142.79 219.386 144.662 220.003C144.723 220.003 144.662 220.112 144.662 220.104C142.337 219.792 142.045 217.057 142.488 215.377Z" fill="#263238"/>
<path d="M144.433 213.578C147.856 213.401 148.017 219.167 144.835 219.327C141.654 219.488 141.553 213.68 144.433 213.578Z" fill="#263238"/>
<path d="M125.535 208.724C126.542 208.682 127.378 208.505 128.334 208.387C129.343 208.371 130.317 208.074 131.103 207.543C131.313 207.339 131.438 207.083 131.456 206.814C131.474 206.545 131.385 206.279 131.203 206.057C130.763 205.668 130.207 205.385 129.593 205.237C128.979 205.089 128.329 205.08 127.71 205.213C126.398 205.3 125.173 205.797 124.277 206.606C124.089 206.799 123.972 207.034 123.939 207.282C123.906 207.53 123.96 207.781 124.092 208.005C124.225 208.228 124.432 208.415 124.688 208.542C124.943 208.67 125.238 208.733 125.535 208.724Z" fill="#263238"/>
<path d="M147.664 209.357C146.745 209.188 145.837 208.977 144.946 208.724C143.955 208.624 143.032 208.253 142.318 207.669C142.137 207.446 142.05 207.179 142.07 206.91C142.09 206.641 142.216 206.386 142.429 206.183C142.921 205.837 143.514 205.607 144.148 205.517C144.781 205.426 145.432 205.479 146.033 205.668C147.32 205.895 148.461 206.515 149.234 207.407C149.385 207.619 149.461 207.863 149.452 208.11C149.444 208.356 149.352 208.596 149.187 208.8C149.023 209.005 148.792 209.166 148.522 209.265C148.252 209.363 147.955 209.395 147.664 209.357Z" fill="#263238"/>
<path d="M126.681 231.712C127.184 232.134 127.688 232.716 128.453 232.784C129.245 232.778 130.026 232.634 130.748 232.362C130.763 232.359 130.778 232.36 130.792 232.364C130.806 232.368 130.818 232.375 130.827 232.385C130.837 232.394 130.843 232.406 130.845 232.418C130.847 232.431 130.845 232.443 130.839 232.454C130.53 232.803 130.114 233.074 129.635 233.24C129.156 233.405 128.632 233.457 128.121 233.391C127.688 233.29 127.3 233.084 127.007 232.798C126.713 232.513 126.526 232.161 126.469 231.788C126.439 231.686 126.6 231.644 126.681 231.712Z" fill="#263238"/>
<path d="M129.028 226.393C129.554 227.106 130.25 227.721 131.074 228.197C131.897 228.674 132.829 229.002 133.811 229.162C134.667 229.315 135.545 229.363 136.418 229.305C136.587 229.3 136.755 229.286 136.921 229.263L137.385 229.204C137.499 229.188 137.603 229.142 137.683 229.072C137.763 229.002 137.814 228.912 137.828 228.816C137.833 228.754 137.833 228.692 137.828 228.63V228.469C137.898 227.093 137.828 225 137.828 225C138.422 225.262 141.462 226.46 141.422 225.743C141.12 219.783 140.777 213.164 138.975 207.297C138.965 207.26 138.94 207.227 138.905 207.203C138.869 207.179 138.825 207.166 138.779 207.166C138.733 207.166 138.689 207.179 138.653 207.203C138.618 207.227 138.593 207.26 138.583 207.297C138.583 213.029 139.831 218.719 139.962 224.476C138.884 224.039 137.739 223.73 136.559 223.556C136.327 223.615 136.871 227.6 136.781 228.216C136.783 228.239 136.783 228.261 136.781 228.284C134.012 228.537 131.948 227.811 129.31 226.224C129.069 226.131 128.898 226.241 129.028 226.393Z" fill="#263238"/>
<path d="M135.461 228.588C134.546 229.56 133.346 230.316 131.978 230.783C131.223 231.017 130.4 231.05 129.622 230.876C127.931 230.471 127.91 229.187 128.243 228.048C128.428 227.461 128.695 226.894 129.038 226.359C130.841 227.657 133.092 228.438 135.461 228.588Z" fill="#263238"/>
<path d="M131.978 230.783C131.223 231.017 130.4 231.05 129.622 230.876C127.931 230.471 127.91 229.187 128.243 228.048C130.065 228.234 131.847 229.297 131.978 230.783Z" fill="#FF98B9"/>
<path opacity="0.2" d="M100.314 213.384C102.388 213.105 107.362 207.222 109.466 204.883C111.57 202.545 112.788 190.009 112.979 187.155C109.287 188.906 106.264 191.5 104.261 194.635C101.905 198.383 100.546 205.753 100.314 213.384Z" fill="#263238"/>
<path d="M138.702 197.539C137.473 198.67 135.92 199.518 134.189 200.005C132.459 200.491 130.61 200.598 128.816 200.317C126.986 200.034 125.272 199.364 123.837 198.369C122.403 197.375 121.296 196.09 120.621 194.635C120.621 194.542 120.42 194.593 120.46 194.677C121.004 196.262 122.054 197.691 123.497 198.811C124.939 199.932 126.719 200.7 128.645 201.034C130.558 201.276 132.513 201.092 134.314 200.499C136.115 199.906 137.698 198.926 138.904 197.657C138.911 197.636 138.909 197.613 138.9 197.592C138.891 197.57 138.874 197.552 138.852 197.539C138.83 197.526 138.804 197.519 138.777 197.519C138.751 197.519 138.724 197.526 138.702 197.539Z" fill="#263238"/>
<path d="M128.474 175.067C122.262 175.016 116.463 177.743 114.057 181.221C112.72 183.203 112.223 185.506 112.647 187.755C112.647 187.848 112.879 187.831 112.869 187.755C112.816 185.773 113.401 183.815 114.561 182.088C115.722 180.361 117.415 178.927 119.463 177.937C121.706 176.784 124.237 176.084 126.858 175.89C129.478 175.697 132.116 176.016 134.565 176.823C136.951 177.563 138.943 178.994 140.182 180.858C140.303 181.052 140.766 180.942 140.676 180.748C139.105 177.439 134.081 175.109 128.474 175.067Z" fill="#263238"/>
<path d="M164.065 187.298C163.144 184.704 161.162 182.466 158.467 180.976C154.732 178.899 150.413 179.076 146.144 179.329C146.12 179.329 146.097 179.337 146.08 179.352C146.063 179.366 146.054 179.385 146.054 179.405C146.054 179.426 146.063 179.445 146.08 179.459C146.097 179.473 146.12 179.481 146.144 179.481C149.789 179.279 153.504 179.245 156.786 180.773C159.518 182.013 161.652 184.009 162.826 186.421C163.944 188.894 163.958 191.623 162.867 194.105C161.775 196.587 159.652 198.654 156.886 199.927C155.274 200.626 153.508 201.041 151.697 201.147C149.886 201.253 148.068 201.048 146.356 200.544C146.215 200.502 146.114 200.662 146.245 200.713C148.559 201.477 151.08 201.687 153.528 201.318C155.976 200.949 158.253 200.017 160.104 198.624C161.956 197.232 163.309 195.435 164.012 193.435C164.715 191.435 164.74 189.31 164.085 187.298H164.065Z" fill="#263238"/>
<path d="M102.028 199.767C102.028 199.767 96.5308 190.287 101.685 185.053C104.605 182.09 113.847 182.766 113.847 182.766C113.847 182.766 117.019 178.401 124.751 177.16C132.483 175.919 141.604 179.98 141.604 179.98C141.604 179.98 149.114 176.679 155.86 180.191C165.273 185.087 163.541 197.319 153.695 200.966C146.789 203.499 137.788 198.214 137.788 198.214C136.892 198.29 127.61 202.595 121.046 195.597C121.046 195.597 115.287 199.582 110.404 196.517C109.573 197.714 108.324 198.667 106.826 199.248C105.328 199.829 103.653 200.011 102.028 199.767Z" fill="#263238"/>
<path d="M105.983 216.592C105.983 216.592 100.758 207.306 95.8349 208.691C90.9118 210.075 93.6401 222.923 98.5733 225.338C99.182 225.684 99.8679 225.924 100.59 226.042C101.312 226.16 102.055 226.155 102.774 226.027C103.493 225.898 104.174 225.649 104.776 225.294C105.378 224.939 105.888 224.486 106.275 223.962L105.983 216.592Z" fill="#AD6359"/>
<path d="M96.7196 212.346C96.639 212.346 96.5987 212.43 96.7196 212.464C100.163 214.254 101.522 217.419 102.267 220.602C101.411 219.293 100.032 218.449 97.978 219.276C97.9568 219.288 97.9405 219.305 97.9315 219.325C97.9225 219.345 97.9213 219.367 97.928 219.388C97.9347 219.408 97.949 219.427 97.9688 219.44C97.9886 219.453 98.013 219.461 98.0384 219.462C98.7259 219.384 99.4255 219.486 100.042 219.753C100.658 220.02 101.161 220.441 101.482 220.956C102.003 221.824 102.415 222.735 102.71 223.675C102.831 223.979 103.455 223.911 103.394 223.573C103.399 223.548 103.399 223.523 103.394 223.497C104.24 219.555 101.713 213.485 96.7196 212.346Z" fill="#263238"/>
<path d="M117.37 235.291L107.454 231.703L99.48 223.379L101.01 222.341L108.682 230.352L118.156 233.779L117.37 235.291Z" fill="#C7C7C7"/>
<path d="M116.313 233.965C117.32 231.543 125.374 232.437 123.914 236.101C122.454 239.765 115.336 236.371 116.313 233.965Z" fill="#37474F"/>
<path d="M95.683 208.437C95.683 208.437 94.6057 194.821 99.3577 187.333C104.653 178.967 126.601 171.006 141.642 179.997C141.642 179.997 117.208 176.333 105.821 187.932C101.029 192.811 101.15 208.817 101.15 208.817L95.683 208.437Z" fill="#C7C7C7"/>
<path d="M97.9014 227.994C105.163 227.933 110.982 222.261 110.9 215.323C110.818 208.386 104.865 202.812 97.6033 202.872C90.342 202.933 84.5223 208.606 84.6046 215.543C84.6869 222.48 90.6401 228.054 97.9014 227.994Z" fill="#C7C7C7"/>
<path d="M107.058 214.963C107.129 221.201 101.904 226.3 95.3798 226.351C88.8559 226.401 83.4999 221.395 83.4294 215.157C83.3589 208.918 88.5841 203.82 95.108 203.769C101.632 203.718 106.988 208.724 107.058 214.963Z" fill="#455A64"/>
<path d="M128.878 249.439L121.78 264.466L99.4497 245.573L93.1876 251.685C93.1876 251.685 115.085 281.746 115.216 280.387L122.515 267.429L133.207 276.385L132.2 253.812L128.878 249.439Z" fill="#DFE4FA"/>
<path d="M133.469 265.2C133.157 261.477 132.976 257.72 132.462 254.014C132.462 253.888 132.2 253.829 132.16 254.014C131.294 257.619 132.573 271.844 132.573 275.263H132.523C132.08 274.874 122.616 267.386 122.525 267.504C120.945 269.564 115.579 278.994 115.216 279.855C111.753 275.077 97.0943 256.26 92.9665 251.744C92.9465 251.714 92.9135 251.693 92.8748 251.685C92.8361 251.676 92.7949 251.68 92.7602 251.697C92.7255 251.714 92.7001 251.742 92.6897 251.774C92.6793 251.807 92.6848 251.841 92.7048 251.87C95.7251 256.935 114.753 281.763 115.015 281.695C117.84 277.244 120.39 272.673 122.656 268.003C124.257 269.632 133.801 278.091 133.831 277.533C133.97 273.42 133.849 269.303 133.469 265.2Z" fill="#263238"/>
<path d="M372.809 209.932H341.67C338.651 209.93 335.756 208.923 333.621 207.133C331.486 205.343 330.286 202.916 330.283 200.384C330.283 197.852 331.483 195.423 333.618 193.633C335.754 191.842 338.65 190.836 341.67 190.836H372.809C375.829 190.836 378.725 191.842 380.861 193.633C382.996 195.423 384.196 197.852 384.196 200.384C384.196 201.638 383.901 202.88 383.329 204.038C382.757 205.196 381.918 206.249 380.861 207.135C379.803 208.022 378.548 208.725 377.167 209.205C375.785 209.685 374.304 209.932 372.809 209.932Z" fill="white"/>
<path d="M348.476 200.216C348.497 199.914 348.616 199.622 348.818 199.371L349.1 199.025L349.694 198.527L350.388 198.105C351.345 197.595 352.413 197.248 353.53 197.084C356.105 196.653 358.757 196.653 361.332 197.084C362.435 197.242 363.489 197.583 364.433 198.088C364.674 198.223 364.916 198.375 365.148 198.519L365.732 199.008C365.884 199.193 366.025 199.385 366.154 199.582C366.253 199.785 366.334 199.994 366.396 200.207H361.292C361.252 200.211 361.212 200.205 361.177 200.188C361.143 200.171 361.116 200.145 361.1 200.114C360.961 199.887 360.753 199.695 360.496 199.557C360.24 199.42 359.945 199.341 359.641 199.329C358.156 199.249 356.666 199.249 355.181 199.329C354.879 199.34 354.586 199.417 354.331 199.554C354.076 199.69 353.869 199.881 353.731 200.106C353.731 200.165 353.66 200.207 353.56 200.207H348.476V200.216Z" fill="#10689B"/>
<path d="M348.475 202.605V201.043H353.508C353.508 201.136 353.508 201.238 353.508 201.347V202.605C353.522 202.679 353.515 202.754 353.487 202.825C353.46 202.896 353.413 202.96 353.35 203.013C353.287 203.065 353.21 203.105 353.126 203.128C353.042 203.151 352.952 203.157 352.864 203.145H349.109C349.021 203.157 348.932 203.152 348.848 203.129C348.763 203.106 348.687 203.066 348.625 203.013C348.563 202.96 348.517 202.895 348.491 202.824C348.464 202.753 348.459 202.678 348.475 202.605Z" fill="#10689B"/>
<path d="M361.332 202.655C361.332 202.124 361.332 201.592 361.332 201.068H366.315V201.161C366.315 201.651 366.315 202.149 366.315 202.639C366.325 202.709 366.315 202.781 366.287 202.848C366.259 202.915 366.214 202.976 366.154 203.027C366.094 203.077 366.021 203.115 365.941 203.139C365.861 203.162 365.775 203.17 365.691 203.162H361.895C361.817 203.165 361.739 203.153 361.666 203.128C361.593 203.104 361.528 203.066 361.474 203.018C361.421 202.969 361.38 202.912 361.356 202.85C361.331 202.787 361.323 202.721 361.332 202.655Z" fill="#10689B"/>
<path d="M245.049 370.595H238.143V374.377H245.049V370.595Z" fill="#455A64"/>
<path d="M253.997 370.343H247.091V374.125H253.997V370.343Z" fill="#455A64"/>
<path d="M262.958 370.09H256.052V373.872H262.958V370.09Z" fill="#455A64"/>
<path d="M271.919 369.845H265.012V373.627H271.919V369.845Z" fill="#455A64"/>
<path d="M280.878 369.591H273.972V373.373H280.878V369.591Z" fill="#455A64"/>
<path d="M289.838 369.347H282.931V373.129H289.838V369.347Z" fill="#455A64"/>
<path d="M298.8 369.093H291.894V372.875H298.8V369.093Z" fill="#455A64"/>
<path d="M307.76 368.84H300.853V372.622H307.76V368.84Z" fill="#455A64"/>
<path d="M316.71 368.595H309.803V372.377H316.71V368.595Z" fill="#455A64"/>
<path d="M318.411 376.547H236.44V371.947L318.411 370.03V376.547Z" fill="#37474F"/>
<path d="M398.407 358.406H263.098L284.612 273.937H419.922L398.407 358.406Z" fill="#455A64"/>
<path d="M403.413 358.406H268.103L289.617 273.937H424.927L403.413 358.406Z" fill="#37474F"/>
<path d="M355.093 316.021C358.764 313.176 359.39 308.738 356.492 306.108C353.594 303.479 348.269 303.653 344.598 306.497C340.926 309.342 340.3 313.78 343.198 316.41C346.096 319.039 351.421 318.865 355.093 316.021Z" fill="#263238"/>
<path d="M365.145 380.465H298.597V376.126L365.145 374.328V380.465Z" fill="#455A64"/>
<path d="M383.238 380.456H347.508L325.983 333.123H361.714L383.238 380.456Z" fill="#455A64"/>
<path d="M389.118 380.456H353.388L331.873 333.123H367.604L389.118 380.456Z" fill="#263238"/>
<path d="M233.913 381.612H165.302C159.452 381.612 167.919 367.633 189.293 362.272C210.667 356.912 240.658 376.37 233.913 381.612Z" fill="#37474F"/>
<path d="M206.992 381.612C207.048 380.019 207.363 378.44 207.929 376.919C208.482 375.385 209.256 373.914 210.234 372.537C211.219 371.155 212.448 369.905 213.879 368.831C215.294 367.754 216.927 366.896 218.701 366.299C217.966 366.805 217.131 367.143 216.456 367.709L215.449 368.46L214.443 369.304C213.17 370.417 212.056 371.649 211.12 372.976C210.17 374.304 209.355 375.696 208.684 377.138C208.001 378.596 207.436 380.091 206.992 381.612Z" fill="#263238"/>
<path d="M215.117 368.308C219.192 369.439 223.048 371.062 226.564 373.128C228.34 374.157 229.948 375.378 231.346 376.758C232.032 377.463 232.623 378.231 233.108 379.046C233.586 379.86 233.86 380.748 233.913 381.654C233.673 380.795 233.254 379.977 232.675 379.24C232.127 378.5 231.486 377.813 230.762 377.188C229.295 375.942 227.694 374.812 225.98 373.812C224.278 372.782 222.476 371.862 220.674 370.95C219.768 370.494 218.842 370.055 217.915 369.633C216.989 369.211 216.053 368.738 215.117 368.308Z" fill="#263238"/>
<path d="M238.826 189.849C238.234 194.557 236.094 199.035 232.644 202.783C229.194 206.531 224.57 209.402 219.288 211.075C214.006 212.748 208.274 213.157 202.731 212.258C197.187 211.359 192.051 209.186 187.894 205.981L172.621 207.889L180.253 196.839C178.346 192.946 177.626 188.716 178.158 184.531C178.549 181.175 179.728 177.918 181.627 174.946C183.526 171.974 186.107 169.346 189.222 167.214C192.337 165.082 195.924 163.488 199.776 162.523C203.629 161.559 207.671 161.243 211.67 161.593C215.669 161.944 219.546 162.955 223.077 164.567C226.609 166.179 229.725 168.361 232.246 170.988C234.767 173.614 236.644 176.633 237.768 179.87C238.892 183.107 239.242 186.498 238.796 189.849H238.826Z" fill="white"/>
<path d="M238.826 189.849C238.24 194.561 236.111 199.046 232.675 202.807C231.821 203.742 230.9 204.633 229.916 205.474C228.897 206.286 227.821 207.047 226.695 207.754C224.452 209.185 221.977 210.342 219.345 211.19C216.715 212.053 213.953 212.605 211.14 212.827C209.731 212.938 208.314 212.961 206.902 212.895C205.486 212.867 204.076 212.746 202.683 212.532C197.055 211.666 191.826 209.503 187.582 206.285L187.944 206.378L172.712 208.345L171.614 208.513L172.168 207.669L179.759 196.585V197.024C177.978 193.393 177.208 189.469 177.508 185.551C177.807 181.633 179.169 177.824 181.489 174.413C183.809 171.003 187.026 168.081 190.896 165.87C194.765 163.659 199.185 162.218 203.819 161.655C208.453 161.092 213.18 161.424 217.638 162.623C222.097 163.823 226.17 165.859 229.548 168.578C232.927 171.296 235.521 174.625 237.134 178.311C238.747 181.997 239.336 185.943 238.856 189.849H238.826ZM238.826 189.849C239.304 186.001 238.725 182.113 237.132 178.483C235.54 174.853 232.977 171.576 229.64 168.906C226.303 166.235 222.281 164.24 217.882 163.075C213.484 161.91 208.825 161.606 204.264 162.185C199.741 162.75 195.433 164.177 191.669 166.355C187.947 168.551 184.836 171.396 182.548 174.696C180.297 178.011 178.968 181.711 178.662 185.518C178.38 189.332 179.12 193.151 180.826 196.695L180.937 196.923L180.786 197.125L173.114 208.159L172.571 207.484L187.833 205.694H188.045L188.196 205.812C192.269 209.01 197.324 211.193 202.794 212.118C204.158 212.348 205.542 212.489 206.932 212.54C208.319 212.62 209.712 212.62 211.1 212.54C213.885 212.362 216.627 211.856 219.245 211.038C221.875 210.24 224.352 209.122 226.594 207.72C227.717 207.02 228.793 206.267 229.816 205.466C230.802 204.634 231.727 203.751 232.584 202.824C236.058 199.067 238.219 194.575 238.826 189.849Z" fill="#263238"/>
<path d="M225.506 187.966C225.508 188.579 225.293 189.179 224.888 189.69C224.484 190.2 223.907 190.599 223.232 190.835C222.557 191.07 221.814 191.133 221.097 191.014C220.379 190.896 219.72 190.601 219.202 190.168C218.685 189.735 218.332 189.183 218.188 188.582C218.045 187.981 218.118 187.358 218.397 186.791C218.676 186.224 219.15 185.74 219.758 185.399C220.365 185.058 221.08 184.876 221.811 184.876C222.296 184.875 222.776 184.954 223.225 185.109C223.673 185.264 224.08 185.491 224.423 185.778C224.767 186.065 225.039 186.406 225.225 186.782C225.411 187.157 225.506 187.56 225.506 187.966Z" fill="#10689B"/>
<path d="M212.275 187.966C212.277 188.58 212.062 189.18 211.657 189.691C211.252 190.201 210.675 190.6 209.999 190.835C209.324 191.071 208.58 191.133 207.862 191.014C207.144 190.894 206.485 190.599 205.968 190.165C205.45 189.732 205.098 189.179 204.956 188.577C204.814 187.975 204.888 187.352 205.169 186.785C205.45 186.219 205.925 185.735 206.534 185.395C207.143 185.055 207.859 184.875 208.591 184.876C209.568 184.876 210.505 185.202 211.196 185.781C211.887 186.361 212.275 187.147 212.275 187.966Z" fill="#10689B"/>
<path d="M199.057 187.966C199.059 188.579 198.844 189.179 198.44 189.69C198.035 190.2 197.458 190.599 196.784 190.834C196.109 191.07 195.365 191.133 194.648 191.014C193.931 190.896 193.271 190.601 192.753 190.168C192.236 189.735 191.883 189.183 191.739 188.582C191.596 187.981 191.669 187.358 191.948 186.791C192.227 186.224 192.701 185.74 193.309 185.399C193.917 185.058 194.631 184.876 195.363 184.876C196.341 184.876 197.279 185.202 197.972 185.781C198.664 186.36 199.055 187.146 199.057 187.966Z" fill="#10689B"/>
<path d="M251.742 57.2951C252.334 62.0032 254.474 66.481 257.924 70.2292C261.373 73.9774 265.995 76.8488 271.277 78.5233C276.558 80.1978 282.29 80.6096 287.834 79.7128C293.377 78.816 298.515 76.6459 302.675 73.4443L317.917 75.3184L310.296 64.268C312.044 60.6696 312.79 56.7845 312.479 52.9079C312.167 49.0314 310.806 45.2653 308.498 41.8961C306.191 38.5268 302.997 35.643 299.161 33.4638C295.325 31.2845 290.947 29.8672 286.359 29.3196C281.772 28.772 277.096 29.1085 272.687 30.3034C268.278 31.4984 264.252 33.5204 260.914 36.2158C257.577 38.9112 255.016 42.209 253.427 45.8587C251.838 49.5083 251.261 53.4138 251.742 57.2782V57.2951Z" fill="white"/>
<path d="M260.862 36.1819C264.182 33.4364 268.21 31.3675 272.636 30.135C277.061 28.9026 281.765 28.5395 286.384 29.0738C291.035 29.5882 295.485 30.9888 299.391 33.1681C305.309 36.4803 309.679 41.406 311.762 47.1107C313.844 52.8153 313.511 58.9482 310.818 64.4704V64.0314L318.389 75.1325L318.943 75.9766L317.845 75.8331L302.603 73.8746L302.965 73.7818C298.721 76.9996 293.492 79.1628 287.864 80.0287C286.471 80.2427 285.061 80.3641 283.645 80.3917C282.236 80.4536 280.823 80.4311 279.417 80.3242C273.771 79.8727 268.384 78.1197 263.852 75.2591C262.726 74.5528 261.65 73.7918 260.631 72.9798C259.65 72.1366 258.729 71.2459 257.872 70.3122C253.308 65.3124 251.09 59.0828 251.637 52.8034C252.185 46.5241 255.46 40.6311 260.842 36.2409L260.862 36.1819ZM257.983 70.194C258.841 71.1186 259.765 71.9982 260.751 72.8278C261.769 73.634 262.845 74.3868 263.973 75.0818C266.215 76.4918 268.695 77.6129 271.333 78.4079C273.948 79.2224 276.686 79.7282 279.467 79.9105C280.858 79.9907 282.254 79.9907 283.645 79.9105C285.032 79.8589 286.412 79.7178 287.773 79.4884C293.243 78.5636 298.298 76.38 302.371 73.1824L302.522 73.0642H302.734L317.996 74.8539L317.453 75.5292L309.781 64.4958L309.63 64.2847L309.741 64.0568C311.45 60.5269 312.183 56.7182 311.885 52.9167C311.587 49.1152 310.265 45.4198 308.019 42.108C305.734 38.8072 302.622 35.9615 298.898 33.7675C295.137 31.5909 290.833 30.1644 286.313 29.5972C280.34 28.8239 274.227 29.5742 268.768 31.7508C263.31 33.9275 258.758 37.4299 255.703 41.8033C252.649 46.1767 251.233 51.2191 251.639 56.2759C252.046 61.3326 254.256 66.1701 257.983 70.1602V70.194Z" fill="#263238"/>
<path d="M284.774 57.7594V60.9504C284.782 61.2683 284.713 61.5842 284.572 61.8792C284.431 62.1743 284.22 62.4422 283.952 62.667C283.683 62.8918 283.364 63.0688 283.012 63.1873C282.66 63.3057 282.283 63.3632 281.904 63.3563C281.144 63.3541 280.416 63.0999 279.878 62.6492C279.341 62.1985 279.038 61.5878 279.035 60.9504V55.8853C279.035 55.8347 279.095 55.8347 279.095 55.784C279.095 55.7334 279.035 55.7334 279.035 55.6912C279.055 55.0584 279.364 54.4563 279.898 54.0088C280.432 53.5612 281.15 53.3023 281.904 53.2852C282.807 53.3446 283.714 53.2469 284.57 52.9981C285.425 52.7492 286.21 52.3548 286.874 51.8394C287.539 51.3241 288.069 50.699 288.432 50.0035C288.795 49.3081 288.982 48.5571 288.982 47.798C288.982 47.0389 288.795 46.288 288.432 45.5925C288.069 44.897 287.539 44.272 286.874 43.7566C286.21 43.2413 285.425 42.8468 284.57 42.598C283.714 42.3492 282.807 42.2514 281.904 42.3109C280.767 42.307 279.649 42.5547 278.663 43.029C277.676 43.5033 276.857 44.1874 276.287 45.0122C276.091 45.2915 275.83 45.5353 275.521 45.7294C275.211 45.9234 274.859 46.0639 274.484 46.1424C274.109 46.221 273.719 46.2362 273.337 46.1871C272.955 46.138 272.589 46.0256 272.259 45.8564C271.935 45.6962 271.651 45.4838 271.425 45.2314C271.198 44.9791 271.034 44.6916 270.94 44.3857C270.847 44.0798 270.826 43.7614 270.88 43.4488C270.933 43.1361 271.06 42.8355 271.253 42.5641C272.271 41.0817 273.714 39.835 275.45 38.9363C277.186 38.0376 279.162 37.5151 281.199 37.4158C283.235 37.3165 285.27 37.6436 287.119 38.3676C288.967 39.0916 290.572 40.1897 291.789 41.5632C293.005 42.9366 293.796 44.5422 294.088 46.2354C294.381 47.9286 294.166 49.6562 293.465 51.2626C292.763 52.8691 291.595 54.304 290.068 55.4381C288.54 56.5722 286.7 57.3699 284.713 57.7594H284.774ZM284.774 68.5058V69.35C284.783 69.6682 284.716 69.9847 284.575 70.2803C284.434 70.5758 284.223 70.8443 283.955 71.0693C283.686 71.2944 283.366 71.4713 283.014 71.5894C282.661 71.7074 282.284 71.7641 281.904 71.756C281.143 71.756 280.414 71.5025 279.875 71.0513C279.337 70.6001 279.035 69.9881 279.035 69.35V68.5058C279.045 67.8705 279.351 67.2636 279.887 66.8143C280.423 66.3649 281.147 66.1087 281.904 66.0999C282.282 66.0965 282.657 66.1565 283.007 66.2762C283.357 66.3959 283.675 66.573 283.942 66.7971C284.209 67.0211 284.421 67.2877 284.563 67.5811C284.706 67.8746 284.778 68.189 284.774 68.5058Z" fill="#10689B"/>
</svg>
