<svg width="74" height="74" viewBox="0 0 74 74" fill="none" xmlns="http://www.w3.org/2000/svg">
<path d="M67 2H7C4.23858 2 2 4.23858 2 7V67C2 69.7614 4.23858 72 7 72H67C69.7614 72 72 69.7614 72 67V7C72 4.23858 69.7614 2 67 2Z" stroke="#10689B" stroke-width="4" stroke-miterlimit="10"/>
<path d="M22.3992 57.9767C22.3992 45.8501 27.3033 39.8334 35.98 36.9883C44.6566 34.1432 49.5609 28.1266 49.5609 16" stroke="#10689B" stroke-width="2" stroke-miterlimit="10" stroke-linecap="round" stroke-linejoin="round"/>
<path d="M26.1716 57.9767C26.1716 45.8501 31.0758 41.4892 39.7525 38.6441C48.4291 35.799 53.3333 28.1266 53.3333 16" stroke="#10689B" stroke-width="2" stroke-miterlimit="10" stroke-linecap="round" stroke-linejoin="round"/>
<path d="M25.6057 16C25.6057 27.357 29.9205 33.3504 37.5833 36.4053" stroke="#10689B" stroke-width="2" stroke-miterlimit="10" stroke-linecap="round" stroke-linejoin="round"/>
<path d="M45.5291 40.2065C50.1975 43.7046 52.7439 49.2549 52.7439 58" stroke="#10689B" stroke-width="2" stroke-miterlimit="10" stroke-linecap="round" stroke-linejoin="round"/>
<path d="M21.8334 16C21.8334 27.2404 26.0302 34.633 33.5516 37.9212" stroke="#10689B" stroke-width="2" stroke-miterlimit="10" stroke-linecap="round" stroke-linejoin="round"/>
<path d="M41.5916 41.4192C46.3543 44.4275 48.9714 49.1382 48.9714 57.9766" stroke="#10689B" stroke-width="2" stroke-miterlimit="10" stroke-linecap="round" stroke-linejoin="round"/>
<path d="M28.5294 17.9358H49.5137" stroke="#10689B" stroke-width="2" stroke-miterlimit="10" stroke-linecap="round" stroke-linejoin="round"/>
<path d="M29.3076 21.6899H49.1366" stroke="#10689B" stroke-width="2" stroke-miterlimit="10" stroke-linecap="round" stroke-linejoin="round"/>
<path d="M30.9108 25.468H48.2169" stroke="#10689B" stroke-width="2" stroke-miterlimit="10" stroke-linecap="round" stroke-linejoin="round"/>
<path d="M32.9856 29.2227H46.4957" stroke="#10689B" stroke-width="2" stroke-miterlimit="10" stroke-linecap="round" stroke-linejoin="round"/>
<path d="M35.8387 33.0007H43.3365" stroke="#10689B" stroke-width="2" stroke-miterlimit="10" stroke-linecap="round" stroke-linejoin="round"/>
<path d="M48.948 56.3677H29.6378" stroke="#10689B" stroke-width="2" stroke-miterlimit="10" stroke-linecap="round" stroke-linejoin="round"/>
<path d="M48.5943 52.613H30.5337" stroke="#10689B" stroke-width="2" stroke-miterlimit="10" stroke-linecap="round" stroke-linejoin="round"/>
<path d="M47.6277 48.835H32.255" stroke="#10689B" stroke-width="2" stroke-miterlimit="10" stroke-linecap="round" stroke-linejoin="round"/>
<path d="M45.6235 45.0803H35.4143" stroke="#10689B" stroke-width="2" stroke-miterlimit="10" stroke-linecap="round" stroke-linejoin="round"/>
</svg>
