<svg width="62" height="62" viewBox="0 0 62 62" fill="none" xmlns="http://www.w3.org/2000/svg">
<path d="M46 1H16C7.71573 1 1 7.71573 1 16V46C1 54.2843 7.71573 61 16 61H46C54.2843 61 61 54.2843 61 46V16C61 7.71573 54.2843 1 46 1Z" stroke="white" stroke-miterlimit="10"/>
<path d="M18.4851 48.98C18.4851 38.5858 22.6887 33.4286 30.1258 30.99C37.5629 28.5514 41.7666 23.3942 41.7666 13" stroke="white" stroke-miterlimit="10" stroke-linecap="round" stroke-linejoin="round"/>
<path d="M21.7185 48.98C21.7185 38.5858 25.9221 34.8479 33.3592 32.4092C40.7963 29.9706 44.9999 23.3942 44.9999 13" stroke="white" stroke-miterlimit="10" stroke-linecap="round" stroke-linejoin="round"/>
<path d="M21.2334 13C21.2334 22.7346 24.9318 27.8717 31.4999 30.4903" stroke="white" stroke-miterlimit="10" stroke-linecap="round" stroke-linejoin="round"/>
<path d="M38.3105 33.7485C42.312 36.7469 44.4947 41.5042 44.4947 49.0001" stroke="white" stroke-miterlimit="10" stroke-linecap="round" stroke-linejoin="round"/>
<path d="M18 13C18 22.6346 21.5973 28.9711 28.0442 31.7896" stroke="white" stroke-miterlimit="10" stroke-linecap="round" stroke-linejoin="round"/>
<path d="M34.9355 34.788C39.0179 37.3665 41.2612 41.4043 41.2612 48.9801" stroke="white" stroke-miterlimit="10" stroke-linecap="round" stroke-linejoin="round"/>
<path d="M23.7395 14.6592H41.726" stroke="white" stroke-miterlimit="10" stroke-linecap="round" stroke-linejoin="round"/>
<path d="M24.4065 17.8773H41.4027" stroke="white" stroke-miterlimit="10" stroke-linecap="round" stroke-linejoin="round"/>
<path d="M25.7808 21.1155H40.6146" stroke="white" stroke-miterlimit="10" stroke-linecap="round" stroke-linejoin="round"/>
<path d="M27.5591 24.3336H39.1392" stroke="white" stroke-miterlimit="10" stroke-linecap="round" stroke-linejoin="round"/>
<path d="M30.0046 27.572H36.4313" stroke="white" stroke-miterlimit="10" stroke-linecap="round" stroke-linejoin="round"/>
<path d="M41.2411 47.6007H24.6895" stroke="white" stroke-miterlimit="10" stroke-linecap="round" stroke-linejoin="round"/>
<path d="M40.9381 44.3826H25.4575" stroke="white" stroke-miterlimit="10" stroke-linecap="round" stroke-linejoin="round"/>
<path d="M40.1095 41.1444H26.9329" stroke="white" stroke-miterlimit="10" stroke-linecap="round" stroke-linejoin="round"/>
<path d="M38.3916 37.926H29.6409" stroke="white" stroke-miterlimit="10" stroke-linecap="round" stroke-linejoin="round"/>
</svg>
