<svg width="63" height="62" viewBox="0 0 63 62" fill="none" xmlns="http://www.w3.org/2000/svg">
<path d="M56.8674 1H6.14453C3.38311 1 1.14453 3.23858 1.14453 6V56C1.14453 58.7614 3.38311 61 6.14453 61H56.8674C59.6288 61 61.8674 58.7614 61.8674 56V6C61.8674 3.23858 59.6288 1 56.8674 1Z" stroke="#10689B" stroke-width="2" stroke-miterlimit="10"/>
<path d="M26.4054 39.5557C30.5527 39.5557 33.9148 36.184 33.9148 32.0249C33.9148 27.8658 30.5527 24.4941 26.4054 24.4941C22.2581 24.4941 18.896 27.8658 18.896 32.0249C18.896 36.184 22.2581 39.5557 26.4054 39.5557Z" stroke="#10689B" stroke-width="2" stroke-miterlimit="10" stroke-linecap="round" stroke-linejoin="round"/>
<path d="M32.6725 36.462L30.5356 38.5093L36.0028 44.2483L38.1397 42.2011L32.6725 36.462Z" stroke="#10689B" stroke-width="2" stroke-miterlimit="10" stroke-linecap="round" stroke-linejoin="round"/>
<path d="M24.6038 16.2329C24.6038 21.4902 13.2891 26.3212 13.2891 32.1063C13.2891 37.8914 24.6038 42.7224 24.6038 47.9797" stroke="#10689B" stroke-width="2" stroke-miterlimit="10" stroke-linecap="round" stroke-linejoin="round"/>
<path d="M13.2891 47.9997C13.2891 44.8737 17.2765 41.9101 20.5151 38.7842" stroke="#10689B" stroke-width="2" stroke-miterlimit="10" stroke-linecap="round" stroke-linejoin="round"/>
<path d="M13.2891 16.2329C13.2891 19.3386 17.2563 22.3021 20.4948 25.4078" stroke="#10689B" stroke-width="2" stroke-miterlimit="10" stroke-linecap="round" stroke-linejoin="round"/>
<path d="M14.1597 18.8921H23.7134" stroke="#10689B" stroke-width="2" stroke-miterlimit="10" stroke-linecap="round" stroke-linejoin="round"/>
<path d="M14.1597 45.3408H23.7944" stroke="#10689B" stroke-width="2" stroke-miterlimit="10" stroke-linecap="round" stroke-linejoin="round"/>
<path d="M14.9084 36.105H18.6733" stroke="#10689B" stroke-width="2" stroke-miterlimit="10" stroke-linecap="round" stroke-linejoin="round"/>
<path d="M14.9084 28.1685H18.6733" stroke="#10689B" stroke-width="2" stroke-miterlimit="10" stroke-linecap="round" stroke-linejoin="round"/>
<path d="M13.2891 32.1064H17.5397" stroke="#10689B" stroke-width="2" stroke-miterlimit="10" stroke-linecap="round" stroke-linejoin="round"/>
<path d="M46.9093 30.4621H39.825C38.2664 30.4621 37.0115 29.2036 37.0115 27.6406V16.8215C37.0115 15.2585 38.2664 14 39.825 14H46.9093C48.4679 14 49.7228 15.2585 49.7228 16.8215V27.6406C49.7228 29.2036 48.4679 30.4621 46.9093 30.4621Z" stroke="#10689B" stroke-width="2" stroke-miterlimit="10" stroke-linecap="round" stroke-linejoin="round"/>
<path d="M43.3267 16.314V20.7593" stroke="#10689B" stroke-width="2" stroke-miterlimit="10" stroke-linecap="round" stroke-linejoin="round"/>
<path d="M39.2988 23.0127H47.4357" stroke="#10689B" stroke-width="2" stroke-miterlimit="10" stroke-linecap="round" stroke-linejoin="round"/>
<path d="M39.2988 25.2861H47.4357" stroke="#10689B" stroke-width="2" stroke-miterlimit="10" stroke-linecap="round" stroke-linejoin="round"/>
<path d="M39.2988 27.5391H43.6911" stroke="#10689B" stroke-width="2" stroke-miterlimit="10" stroke-linecap="round" stroke-linejoin="round"/>
<path d="M41.4241 17.4307L45.2496 19.6432" stroke="#10689B" stroke-width="2" stroke-miterlimit="10" stroke-linecap="round" stroke-linejoin="round"/>
<path d="M41.4241 19.6432L45.2496 17.4307" stroke="#10689B" stroke-width="2" stroke-miterlimit="10" stroke-linecap="round" stroke-linejoin="round"/>
</svg>
