<svg width="62" height="62" viewBox="0 0 62 62" fill="none" xmlns="http://www.w3.org/2000/svg">
<path d="M46 1H16C7.71573 1 1 7.71573 1 16V46C1 54.2843 7.71573 61 16 61H46C54.2843 61 61 54.2843 61 46V16C61 7.71573 54.2843 1 46 1Z" stroke="white" stroke-width="2" stroke-miterlimit="10"/>
<path d="M25.96 39.5558C30.058 39.5558 33.3801 36.1842 33.3801 32.0251C33.3801 27.8659 30.058 24.4943 25.96 24.4943C21.8621 24.4943 18.54 27.8659 18.54 32.0251C18.54 36.1842 21.8621 39.5558 25.96 39.5558Z" stroke="white" stroke-width="2" stroke-miterlimit="10" stroke-linecap="round" stroke-linejoin="round"/>
<path d="M36.5466 41.1301L33.1604 37.5325C32.6037 36.9412 31.6798 36.9201 31.0967 37.4854C30.5137 38.0507 30.4923 38.9884 31.0489 39.5798L34.4352 43.1773C34.9918 43.7687 35.9157 43.7898 36.4988 43.2245C37.0819 42.6591 37.1033 41.7214 36.5466 41.1301Z" stroke="white" stroke-width="2" stroke-miterlimit="10" stroke-linecap="round" stroke-linejoin="round"/>
<path d="M24.18 16.2329C24.18 21.4902 13 26.3212 13 32.1063C13 37.8914 24.18 42.7224 24.18 47.9797" stroke="white" stroke-width="2" stroke-miterlimit="10" stroke-linecap="round" stroke-linejoin="round"/>
<path d="M13 48C13 44.874 16.94 41.9104 20.14 38.7844" stroke="white" stroke-width="2" stroke-miterlimit="10" stroke-linecap="round" stroke-linejoin="round"/>
<path d="M13 16.2329C13 19.3386 16.92 22.3021 20.12 25.4078" stroke="white" stroke-width="2" stroke-miterlimit="10" stroke-linecap="round" stroke-linejoin="round"/>
<path d="M13.8601 18.892H23.3001" stroke="white" stroke-width="2" stroke-miterlimit="10" stroke-linecap="round" stroke-linejoin="round"/>
<path d="M13.8601 45.3408H23.3801" stroke="white" stroke-width="2" stroke-miterlimit="10" stroke-linecap="round" stroke-linejoin="round"/>
<path d="M14.6001 36.1051H18.3201" stroke="white" stroke-width="2" stroke-miterlimit="10" stroke-linecap="round" stroke-linejoin="round"/>
<path d="M14.6001 28.1685H18.3201" stroke="white" stroke-width="2" stroke-miterlimit="10" stroke-linecap="round" stroke-linejoin="round"/>
<path d="M13 32.1062H17.2" stroke="white" stroke-width="2" stroke-miterlimit="10" stroke-linecap="round" stroke-linejoin="round"/>
<path d="M46.2199 30.4621H39.2199C37.6799 30.4621 36.4399 29.2036 36.4399 27.6406V16.8215C36.4399 15.2585 37.6799 14 39.2199 14H46.2199C47.7599 14 48.9999 15.2585 48.9999 16.8215V27.6406C48.9999 29.2036 47.7599 30.4621 46.2199 30.4621Z" stroke="white" stroke-width="2" stroke-miterlimit="10" stroke-linecap="round" stroke-linejoin="round"/>
<path d="M42.6797 16.314V20.7593" stroke="white" stroke-width="2" stroke-miterlimit="10" stroke-linecap="round" stroke-linejoin="round"/>
<path d="M38.7002 23.0125H46.7402" stroke="white" stroke-width="2" stroke-miterlimit="10" stroke-linecap="round" stroke-linejoin="round"/>
<path d="M38.7002 25.2859H46.7402" stroke="white" stroke-width="2" stroke-miterlimit="10" stroke-linecap="round" stroke-linejoin="round"/>
<path d="M38.7002 27.5391H43.0402" stroke="white" stroke-width="2" stroke-miterlimit="10" stroke-linecap="round" stroke-linejoin="round"/>
<path d="M40.7998 17.4305L44.5798 19.6431" stroke="white" stroke-width="2" stroke-miterlimit="10" stroke-linecap="round" stroke-linejoin="round"/>
<path d="M40.7998 19.6431L44.5798 17.4305" stroke="white" stroke-width="2" stroke-miterlimit="10" stroke-linecap="round" stroke-linejoin="round"/>
</svg>
