<svg width="74" height="74" viewBox="0 0 74 74" fill="none" xmlns="http://www.w3.org/2000/svg">
<path d="M67 2H7C4.23858 2 2 4.23858 2 7V67C2 69.7614 4.23858 72 7 72H67C69.7614 72 72 69.7614 72 67V7C72 4.23858 69.7614 2 67 2Z" stroke="#0079AB" stroke-width="3" stroke-miterlimit="10"/>
<g clip-path="url(#clip0_809_573)">
<path d="M40.9999 17C44.6599 16.9983 48.2098 18.2513 51.0576 20.5503C53.9055 22.8492 55.8791 26.055 56.6493 29.6329C57.4195 33.2109 56.9397 36.9448 55.29 40.2119C53.6403 43.4789 50.9204 46.0817 47.5839 47.586C46.5174 49.9438 44.895 52.0078 42.8557 53.6009C40.8163 55.1939 38.421 56.2686 35.8752 56.7327C33.3293 57.1968 30.7089 57.0364 28.2387 56.2654C25.7684 55.4943 23.522 54.1356 21.6922 52.3058C19.8623 50.4759 18.5036 48.2295 17.7326 45.7593C16.9615 43.289 16.8012 40.6686 17.2652 38.1227C17.7293 35.5769 18.804 33.1816 20.3971 31.1423C21.9902 29.103 24.0541 27.4805 26.4119 26.414C27.6802 23.6078 29.7311 21.227 32.3186 19.5572C34.9061 17.8874 37.9204 16.9995 40.9999 17ZM32.9999 29C31.4241 29 29.8636 29.3104 28.4077 29.9134C26.9518 30.5165 25.6289 31.4004 24.5146 32.5147C23.4003 33.629 22.5164 34.9519 21.9134 36.4078C21.3103 37.8637 20.9999 39.4241 20.9999 41C20.9999 42.5759 21.3103 44.1363 21.9134 45.5922C22.5164 47.0481 23.4003 48.371 24.5146 49.4853C25.6289 50.5996 26.9518 51.4835 28.4077 52.0866C29.8636 52.6896 31.4241 53 32.9999 53C36.1825 53 39.2348 51.7357 41.4852 49.4853C43.7356 47.2348 44.9999 44.1826 44.9999 41C44.9999 37.8174 43.7356 34.7652 41.4852 32.5147C39.2348 30.2643 36.1825 29 32.9999 29ZM34.9999 31V33H38.9999V37H30.9999C30.75 36.9995 30.509 37.0927 30.3244 37.261C30.1397 37.4294 30.0248 37.6608 30.0022 37.9096C29.9796 38.1585 30.051 38.4068 30.2024 38.6057C30.3537 38.8045 30.574 38.9395 30.8199 38.984L30.9999 39H34.9999C36.326 39 37.5978 39.5268 38.5355 40.4645C39.4731 41.4021 39.9999 42.6739 39.9999 44C39.9999 45.3261 39.4731 46.5979 38.5355 47.5355C37.5978 48.4732 36.326 49 34.9999 49V51H30.9999V49H26.9999V45H34.9999C35.2498 45.0005 35.4908 44.9073 35.6755 44.739C35.8602 44.5706 35.9751 44.3392 35.9977 44.0904C36.0203 43.8415 35.9488 43.5932 35.7975 43.3943C35.6461 43.1955 35.4258 43.0605 35.1799 43.016L34.9999 43H30.9999C29.6738 43 28.4021 42.4732 27.4644 41.5355C26.5267 40.5979 25.9999 39.3261 25.9999 38C25.9999 36.6739 26.5267 35.4021 27.4644 34.4645C28.4021 33.5268 29.6738 33 30.9999 33V31H34.9999ZM40.9999 21C39.3053 20.998 37.6296 21.3559 36.0836 22.0499C34.5376 22.744 33.1566 23.7584 32.0319 25.026C34.2925 24.8888 36.5564 25.233 38.6739 26.0359C40.7915 26.8388 42.7145 28.0821 44.3158 29.6836C45.9171 31.285 47.1602 33.2082 47.9628 35.3259C48.7655 37.4435 49.1094 39.7075 48.9719 41.968C50.7904 40.3512 52.0743 38.2199 52.6536 35.8566C53.2328 33.4934 53.0799 31.0098 52.2152 28.7354C51.3505 26.4611 49.8148 24.5033 47.8118 23.1218C45.8088 21.7403 43.4331 21.0003 40.9999 21Z" fill="#0079AB"/>
</g>
<defs>
<clipPath id="clip0_809_573">
<rect width="48" height="48" fill="white" transform="translate(13 13)"/>
</clipPath>
</defs>
</svg>
