<svg width="62" height="62" viewBox="0 0 62 62" fill="none" xmlns="http://www.w3.org/2000/svg">
<path d="M46 1H16C7.71573 1 1 7.71573 1 16V46C1 54.2843 7.71573 61 16 61H46C54.2843 61 61 54.2843 61 46V16C61 7.71573 54.2843 1 46 1Z" stroke="white" stroke-width="2" stroke-miterlimit="10"/>
<path d="M36.8601 13C36.8601 13 46.0601 15.191 49.0001 25.5025" stroke="white" stroke-width="2" stroke-miterlimit="10" stroke-linecap="round" stroke-linejoin="round"/>
<path d="M35.72 17.4624C35.72 17.4624 42.5 19.6534 44.54 26.4875" stroke="white" stroke-width="2" stroke-miterlimit="10" stroke-linecap="round" stroke-linejoin="round"/>
<path d="M34.8799 21.623C34.8799 21.623 39.0599 23.6733 40.1399 27.3115" stroke="white" stroke-width="2" stroke-miterlimit="10" stroke-linecap="round" stroke-linejoin="round"/>
<path d="M34.5 27.4725C36.4263 29.4084 37.4649 31.1677 38.0249 32.4987C38.6724 34.0378 38.0177 35.6758 36.84 36.8594V36.8594C36.62 37.0805 36.28 37.1408 36 36.98C34.52 36.1358 31.38 36.2765 30.98 36.6986V36.6986C30.98 36.6986 30.5714 37.1092 30.5714 37.1092L22.58 45.1408C22.38 45.3418 22.1 45.4624 21.8 45.4624V45.4624C18.853 45.6341 16.409 43.2099 16.5567 40.2616L16.56 40.1961C16.58 39.9348 16.7 39.6936 16.88 39.4926L24.8937 31.4387C24.8937 31.4387 25.32 31.0102 25.32 31.0102V31.0102C25.74 30.5881 25.88 27.4323 25.04 25.9649C24.88 25.7036 24.94 25.3418 25.16 25.1207V25.1207C26.1747 24.1009 28.185 23.3766 29.5094 23.9384C30.8308 24.4989 32.5755 25.5383 34.5 27.4725Z" stroke="white" stroke-width="2" stroke-miterlimit="10" stroke-linecap="round" stroke-linejoin="round"/>
<path d="M27.44 34.4874L25.02 36.9196" stroke="white" stroke-width="2" stroke-miterlimit="10" stroke-linecap="round" stroke-linejoin="round"/>
<path d="M16.3 45.7839L13 49" stroke="white" stroke-width="2" stroke-miterlimit="10" stroke-linecap="round" stroke-linejoin="round"/>
</svg>
