<svg width="62" height="62" viewBox="0 0 62 62" fill="none" xmlns="http://www.w3.org/2000/svg">
<path d="M46 1H16C7.71573 1 1 7.71573 1 16V46C1 54.2843 7.71573 61 16 61H46C54.2843 61 61 54.2843 61 46V16C61 7.71573 54.2843 1 46 1Z" stroke="white" stroke-width="2" stroke-miterlimit="10"/>
<path d="M26.1702 41.3201C30.0174 41.3201 33.1362 38.2398 33.1362 34.4401C33.1362 30.6403 30.0174 27.5601 26.1702 27.5601C22.3229 27.5601 19.2041 30.6403 19.2041 34.4401C19.2041 38.2398 22.3229 41.3201 26.1702 41.3201Z" stroke="white" stroke-width="2" stroke-miterlimit="10" stroke-linecap="round" stroke-linejoin="round"/>
<path d="M36.1169 42.7287L32.9425 39.4469C32.4207 38.9075 31.5552 38.8877 31.0094 39.4028C30.4635 39.9178 30.444 40.7726 30.9658 41.312L34.1402 44.5939C34.662 45.1333 35.5275 45.1531 36.0733 44.638C36.6192 44.123 36.6387 43.2682 36.1169 42.7287Z" stroke="white" stroke-width="2" stroke-miterlimit="10" stroke-linecap="round" stroke-linejoin="round"/>
<path d="M24.4896 20C24.4896 24.8 14 29.22 14 34.5C14 39.78 24.4896 44.2 24.4896 49" stroke="white" stroke-width="2" stroke-miterlimit="10" stroke-linecap="round" stroke-linejoin="round"/>
<path d="M14 49C14 46.14 17.7058 43.44 20.7028 40.6" stroke="white" stroke-width="2" stroke-miterlimit="10" stroke-linecap="round" stroke-linejoin="round"/>
<path d="M14 20C14 22.84 17.6856 25.54 20.6826 28.38" stroke="white" stroke-width="2" stroke-miterlimit="10" stroke-linecap="round" stroke-linejoin="round"/>
<path d="M14.8101 22.4399H23.6796" stroke="white" stroke-width="2" stroke-miterlimit="10" stroke-linecap="round" stroke-linejoin="round"/>
<path d="M14.8101 46.58H23.7606" stroke="white" stroke-width="2" stroke-miterlimit="10" stroke-linecap="round" stroke-linejoin="round"/>
<path d="M15.4985 38.14H19.0018" stroke="white" stroke-width="2" stroke-miterlimit="10" stroke-linecap="round" stroke-linejoin="round"/>
<path d="M15.4985 30.9H19.0018" stroke="white" stroke-width="2" stroke-miterlimit="10" stroke-linecap="round" stroke-linejoin="round"/>
<path d="M14 34.5H17.9488" stroke="white" stroke-width="2" stroke-miterlimit="10" stroke-linecap="round" stroke-linejoin="round"/>
<path d="M44.9624 20.88V20.88C46.64 20.88 47.9999 22.2399 47.9999 23.9175V24.59C47.9999 26.639 46.3389 28.3 44.2899 28.3H37.0489C34.9999 28.3 33.3389 26.639 33.3389 24.59V23.9175C33.3389 22.2399 34.6988 20.88 36.3764 20.88V20.88" stroke="white" stroke-width="2" stroke-miterlimit="10" stroke-linecap="round" stroke-linejoin="round"/>
<path d="M41.8238 24.54C41.8238 25.1 41.358 25.58 40.7708 25.58C40.2038 25.58 39.7178 25.12 39.7178 24.54" fill="white"/>
<path d="M39.7383 24.54C39.7441 24.4382 39.7513 24.3353 39.7597 24.2314C39.7865 23.9042 41.824 24.54 41.824 24.54" fill="white"/>
<path d="M42.9374 24.6C42.9374 25.84 41.9249 26.84 40.6694 26.84C39.4139 26.84 38.4014 25.84 38.4014 24.6" stroke="white" stroke-width="2" stroke-miterlimit="10" stroke-linecap="round" stroke-linejoin="round"/>
<path d="M38.4215 24.6C38.4215 24.6 38.4216 23.96 38.6646 23.6C38.9076 23.24 39.0898 20.9 36.3965 20.9" stroke="white" stroke-width="2" stroke-miterlimit="10" stroke-linecap="round" stroke-linejoin="round"/>
<path d="M42.9376 24.6C42.9376 24.6 42.9376 23.96 42.6946 23.6C42.4516 23.24 42.2693 20.9 44.9626 20.9" stroke="white" stroke-width="2" stroke-miterlimit="10" stroke-linecap="round" stroke-linejoin="round"/>
<path d="M26.1702 41.3201C30.0174 41.3201 33.1362 38.2398 33.1362 34.4401C33.1362 30.6403 30.0174 27.5601 26.1702 27.5601C22.3229 27.5601 19.2041 30.6403 19.2041 34.4401C19.2041 38.2398 22.3229 41.3201 26.1702 41.3201Z" stroke="white" stroke-width="2" stroke-miterlimit="10" stroke-linecap="round" stroke-linejoin="round"/>
<path d="M36.1169 42.7287L32.9425 39.4469C32.4207 38.9075 31.5552 38.8877 31.0094 39.4028C30.4635 39.9178 30.444 40.7726 30.9658 41.312L34.1402 44.5939C34.662 45.1333 35.5275 45.1531 36.0733 44.638C36.6192 44.123 36.6387 43.2682 36.1169 42.7287Z" stroke="white" stroke-width="2" stroke-miterlimit="10" stroke-linecap="round" stroke-linejoin="round"/>
<path d="M24.4896 20C24.4896 24.8 14 29.22 14 34.5C14 39.78 24.4896 44.2 24.4896 49" stroke="white" stroke-width="2" stroke-miterlimit="10" stroke-linecap="round" stroke-linejoin="round"/>
<path d="M14 49C14 46.14 17.7058 43.44 20.7028 40.6" stroke="white" stroke-width="2" stroke-miterlimit="10" stroke-linecap="round" stroke-linejoin="round"/>
<path d="M14 20C14 22.84 17.6856 25.54 20.6826 28.38" stroke="white" stroke-width="2" stroke-miterlimit="10" stroke-linecap="round" stroke-linejoin="round"/>
<path d="M14.8101 22.4399H23.6796" stroke="white" stroke-width="2" stroke-miterlimit="10" stroke-linecap="round" stroke-linejoin="round"/>
<path d="M14.8101 46.58H23.7606" stroke="white" stroke-width="2" stroke-miterlimit="10" stroke-linecap="round" stroke-linejoin="round"/>
<path d="M15.4985 38.14H19.0018" stroke="white" stroke-width="2" stroke-miterlimit="10" stroke-linecap="round" stroke-linejoin="round"/>
<path d="M15.4985 30.9H19.0018" stroke="white" stroke-width="2" stroke-miterlimit="10" stroke-linecap="round" stroke-linejoin="round"/>
<path d="M14 34.5H17.9488" stroke="white" stroke-width="2" stroke-miterlimit="10" stroke-linecap="round" stroke-linejoin="round"/>
<path d="M44.9624 20.88V20.88C46.64 20.88 47.9999 22.2399 47.9999 23.9175V24.59C47.9999 26.639 46.3389 28.3 44.2899 28.3H37.0489C34.9999 28.3 33.3389 26.639 33.3389 24.59V23.9175C33.3389 22.2399 34.6988 20.88 36.3764 20.88V20.88" stroke="white" stroke-width="2" stroke-miterlimit="10" stroke-linecap="round" stroke-linejoin="round"/>
<path d="M42.9374 24.6C42.9374 25.84 41.9249 26.84 40.6694 26.84C39.4139 26.84 38.4014 25.84 38.4014 24.6" stroke="white" stroke-width="2" stroke-miterlimit="10" stroke-linecap="round" stroke-linejoin="round"/>
<path d="M38.4215 24.6C38.4215 24.6 38.4216 23.96 38.6646 23.6C38.9076 23.24 39.0898 20.9 36.3965 20.9" stroke="white" stroke-width="2" stroke-miterlimit="10" stroke-linecap="round" stroke-linejoin="round"/>
<path d="M42.9376 24.6C42.9376 24.6 42.9376 23.96 42.6946 23.6C42.4516 23.24 42.2693 20.9 44.9626 20.9" stroke="white" stroke-width="2" stroke-miterlimit="10" stroke-linecap="round" stroke-linejoin="round"/>
</svg>
