<svg width="62" height="62" viewBox="0 0 62 62" fill="none" xmlns="http://www.w3.org/2000/svg">
<path d="M56 1H6C3.23858 1 1 3.23858 1 6V56C1 58.7614 3.23858 61 6 61H56C58.7614 61 61 58.7614 61 56V6C61 3.23858 58.7614 1 56 1Z" stroke="white" stroke-width="2" stroke-miterlimit="10"/>
<path d="M44.08 29.1117C45.5 28.8745 46.5 28.8547 48.2 28.7559C49 28.7559 49 29.4479 49 29.9817V42.6357C49 43.387 48.38 44 47.62 44H14.38C13.62 44 13 43.387 13 42.6357V29.9817C13 29.9619 13 29.9224 13 29.9027C14.1 29.8433 15.08 29.784 16.36 29.9422" stroke="white" stroke-width="2" stroke-miterlimit="10" stroke-linecap="round" stroke-linejoin="round"/>
<path d="M33.1797 31.8402C36.6597 31.682 37.8197 31.1086 39.4197 30.4364" stroke="white" stroke-width="2" stroke-miterlimit="10" stroke-linecap="round" stroke-linejoin="round"/>
<path d="M20.6396 30.9109C22.7796 31.3854 24.9397 31.6227 28.6997 31.7809" stroke="white" stroke-width="2" stroke-miterlimit="10" stroke-linecap="round" stroke-linejoin="round"/>
<path d="M18.0197 24.8609C19.5661 24.8609 20.8197 23.6216 20.8197 22.0929C20.8197 20.5641 19.5661 19.3248 18.0197 19.3248C16.4733 19.3248 15.2197 20.5641 15.2197 22.0929C15.2197 23.6216 16.4733 24.8609 18.0197 24.8609Z" stroke="white" stroke-width="2" stroke-miterlimit="10" stroke-linecap="round" stroke-linejoin="round"/>
<path d="M18.5201 35.3596L18.1201 24.8411" stroke="white" stroke-width="2" stroke-miterlimit="10" stroke-linecap="round" stroke-linejoin="round"/>
<path d="M43.4397 23.5361C44.9861 23.5361 46.2397 22.2969 46.2397 20.7681C46.2397 19.2393 44.9861 18 43.4397 18C41.8933 18 40.6396 19.2393 40.6396 20.7681C40.6396 22.2969 41.8933 23.5361 43.4397 23.5361Z" stroke="white" stroke-width="2" stroke-miterlimit="10" stroke-linecap="round" stroke-linejoin="round"/>
<path d="M40.8799 33.7977L42.9199 23.4768" stroke="white" stroke-width="2" stroke-miterlimit="10" stroke-linecap="round" stroke-linejoin="round"/>
<path d="M30.9802 27.6091C32.5266 27.6091 33.7802 26.3699 33.7802 24.8411C33.7802 23.3123 32.5266 22.073 30.9802 22.073C29.4338 22.073 28.1802 23.3123 28.1802 24.8411C28.1802 26.3699 29.4338 27.6091 30.9802 27.6091Z" stroke="white" stroke-width="2" stroke-miterlimit="10" stroke-linecap="round" stroke-linejoin="round"/>
<path d="M30.98 38.1279V27.6093" stroke="white" stroke-width="2" stroke-miterlimit="10" stroke-linecap="round" stroke-linejoin="round"/>
</svg>
