<svg width="74" height="74" viewBox="0 0 74 74" fill="none" xmlns="http://www.w3.org/2000/svg">
<path d="M67 2H7C4.23858 2 2 4.23858 2 7V67C2 69.7614 4.23858 72 7 72H67C69.7614 72 72 69.7614 72 67V7C72 4.23858 69.7614 2 67 2Z" stroke="#0079AB" stroke-width="3" stroke-miterlimit="10"/>
<g clip-path="url(#clip0_809_541)">
<path d="M21 17H53C53.5304 17 54.0391 17.2107 54.4142 17.5858C54.7893 17.9609 55 18.4696 55 19V57.552C55.0002 57.7189 54.9586 57.8831 54.879 58.0298C54.7995 58.1765 54.6845 58.3009 54.5445 58.3918C54.4045 58.4826 54.244 58.537 54.0777 58.55C53.9113 58.563 53.7443 58.5341 53.592 58.466L37 51.06L20.408 58.464C20.2558 58.532 20.089 58.5609 19.9228 58.548C19.7566 58.5352 19.5963 58.481 19.4564 58.3903C19.3164 58.2997 19.2014 58.1755 19.1217 58.0291C19.042 57.8827 19.0002 57.7187 19 57.552V19C19 18.4696 19.2107 17.9609 19.5858 17.5858C19.9609 17.2107 20.4696 17 21 17ZM51 52.93V21H23V52.93L37 46.682L51 52.93ZM37 40L31.122 43.09L32.244 36.546L27.49 31.91L34.062 30.954L37 25L39.94 30.954L46.51 31.91L41.756 36.546L42.876 43.09L37 40Z" fill="#0079AB"/>
</g>
<defs>
<clipPath id="clip0_809_541">
<rect width="48" height="48" fill="white" transform="translate(13 13)"/>
</clipPath>
</defs>
</svg>
