<svg width="62" height="62" viewBox="0 0 62 62" fill="none" xmlns="http://www.w3.org/2000/svg">
<path d="M46 1H16C7.71573 1 1 7.71573 1 16V46C1 54.2843 7.71573 61 16 61H46C54.2843 61 61 54.2843 61 46V16C61 7.71573 54.2843 1 46 1Z" stroke="white" stroke-width="2" stroke-miterlimit="10"/>
<path d="M46.7813 41H15.2187C13.9994 41 13 40.041 13 38.8276V22.1724C13 20.9786 13.9794 20 15.2187 20H46.7813C48.0006 20 49 20.959 49 22.1724V38.8276C49 40.041 48.0006 41 46.7813 41Z" stroke="white" stroke-width="2" stroke-miterlimit="10" stroke-linecap="round" stroke-linejoin="round"/>
<path d="M33.2087 28.4158H39.0855C39.4853 28.4158 39.8051 28.7289 39.8051 29.1203V31.8995C39.8051 32.2909 39.4853 32.604 39.0855 32.604H22.9345C22.5347 32.604 22.2148 32.2909 22.2148 31.8995V29.1203C22.2148 28.7289 22.5347 28.4158 22.9345 28.4158H30.1504" stroke="white" stroke-width="2" stroke-miterlimit="10" stroke-linecap="round" stroke-linejoin="round"/>
<path d="M17.5574 25.7736C18.5178 25.7736 19.2964 25.0113 19.2964 24.0709C19.2964 23.1305 18.5178 22.3682 17.5574 22.3682C16.5969 22.3682 15.8184 23.1305 15.8184 24.0709C15.8184 25.0113 16.5969 25.7736 17.5574 25.7736Z" stroke="white" stroke-width="2" stroke-miterlimit="10" stroke-linecap="round" stroke-linejoin="round"/>
<path d="M17.5574 32.2125C18.5178 32.2125 19.2964 31.4502 19.2964 30.5098C19.2964 29.5694 18.5178 28.8071 17.5574 28.8071C16.5969 28.8071 15.8184 29.5694 15.8184 30.5098C15.8184 31.4502 16.5969 32.2125 17.5574 32.2125Z" stroke="white" stroke-width="2" stroke-miterlimit="10" stroke-linecap="round" stroke-linejoin="round"/>
<path d="M44.9021 32.2125C45.8626 32.2125 46.6411 31.4502 46.6411 30.5098C46.6411 29.5694 45.8626 28.8071 44.9021 28.8071C43.9417 28.8071 43.1631 29.5694 43.1631 30.5098C43.1631 31.4502 43.9417 32.2125 44.9021 32.2125Z" stroke="white" stroke-width="2" stroke-miterlimit="10" stroke-linecap="round" stroke-linejoin="round"/>
<path d="M24.3933 25.7736C25.3538 25.7736 26.1324 25.0113 26.1324 24.0709C26.1324 23.1305 25.3538 22.3682 24.3933 22.3682C23.4329 22.3682 22.6543 23.1305 22.6543 24.0709C22.6543 25.0113 23.4329 25.7736 24.3933 25.7736Z" stroke="white" stroke-width="2" stroke-miterlimit="10" stroke-linecap="round" stroke-linejoin="round"/>
<path d="M31.2297 25.7736C32.1902 25.7736 32.9688 25.0113 32.9688 24.0709C32.9688 23.1305 32.1902 22.3682 31.2297 22.3682C30.2693 22.3682 29.4907 23.1305 29.4907 24.0709C29.4907 25.0113 30.2693 25.7736 31.2297 25.7736Z" stroke="white" stroke-width="2" stroke-miterlimit="10" stroke-linecap="round" stroke-linejoin="round"/>
<path d="M38.0657 25.7736C39.0262 25.7736 39.8048 25.0113 39.8048 24.0709C39.8048 23.1305 39.0262 22.3682 38.0657 22.3682C37.1053 22.3682 36.3267 23.1305 36.3267 24.0709C36.3267 25.0113 37.1053 25.7736 38.0657 25.7736Z" stroke="white" stroke-width="2" stroke-miterlimit="10" stroke-linecap="round" stroke-linejoin="round"/>
<path d="M44.9021 25.7736C45.8626 25.7736 46.6411 25.0113 46.6411 24.0709C46.6411 23.1305 45.8626 22.3682 44.9021 22.3682C43.9417 22.3682 43.1631 23.1305 43.1631 24.0709C43.1631 25.0113 43.9417 25.7736 44.9021 25.7736Z" stroke="white" stroke-width="2" stroke-miterlimit="10" stroke-linecap="round" stroke-linejoin="round"/>
<path d="M17.5574 39.1017C18.5178 39.1017 19.2964 38.3394 19.2964 37.399C19.2964 36.4586 18.5178 35.6963 17.5574 35.6963C16.5969 35.6963 15.8184 36.4586 15.8184 37.399C15.8184 38.3394 16.5969 39.1017 17.5574 39.1017Z" stroke="white" stroke-width="2" stroke-miterlimit="10" stroke-linecap="round" stroke-linejoin="round"/>
<path d="M24.3933 39.1017C25.3538 39.1017 26.1324 38.3394 26.1324 37.399C26.1324 36.4586 25.3538 35.6963 24.3933 35.6963C23.4329 35.6963 22.6543 36.4586 22.6543 37.399C22.6543 38.3394 23.4329 39.1017 24.3933 39.1017Z" stroke="white" stroke-width="2" stroke-miterlimit="10" stroke-linecap="round" stroke-linejoin="round"/>
<path d="M31.2297 39.1017C32.1902 39.1017 32.9688 38.3394 32.9688 37.399C32.9688 36.4586 32.1902 35.6963 31.2297 35.6963C30.2693 35.6963 29.4907 36.4586 29.4907 37.399C29.4907 38.3394 30.2693 39.1017 31.2297 39.1017Z" stroke="white" stroke-width="2" stroke-miterlimit="10" stroke-linecap="round" stroke-linejoin="round"/>
<path d="M38.0657 39.1017C39.0262 39.1017 39.8048 38.3394 39.8048 37.399C39.8048 36.4586 39.0262 35.6963 38.0657 35.6963C37.1053 35.6963 36.3267 36.4586 36.3267 37.399C36.3267 38.3394 37.1053 39.1017 38.0657 39.1017Z" stroke="white" stroke-width="2" stroke-miterlimit="10" stroke-linecap="round" stroke-linejoin="round"/>
<path d="M44.9021 39.1017C45.8626 39.1017 46.6411 38.3394 46.6411 37.399C46.6411 36.4586 45.8626 35.6963 44.9021 35.6963C43.9417 35.6963 43.1631 36.4586 43.1631 37.399C43.1631 38.3394 43.9417 39.1017 44.9021 39.1017Z" stroke="white" stroke-width="2" stroke-miterlimit="10" stroke-linecap="round" stroke-linejoin="round"/>
<path d="M28.1118 26.4194L30.1507 28.4157" stroke="white" stroke-width="2" stroke-miterlimit="10" stroke-linecap="round" stroke-linejoin="round"/>
<path d="M28.1118 30.3925L30.1507 28.4158" stroke="white" stroke-width="2" stroke-miterlimit="10" stroke-linecap="round" stroke-linejoin="round"/>
</svg>
