<svg width="31" height="29" viewBox="0 0 31 29" fill="none" xmlns="http://www.w3.org/2000/svg">
<path d="M14.525 1.77439C14.7615 0.737463 16.2385 0.73746 16.475 1.77439L18.2648 9.62426C18.5257 10.7683 19.4295 11.6552 20.5783 11.8944L28.3913 13.521C29.4529 13.742 29.4529 15.258 28.3913 15.479L20.5783 17.1056C19.4295 17.3448 18.5257 18.2317 18.2648 19.3757L16.475 27.2256C16.2385 28.2625 14.7615 28.2625 14.525 27.2256L12.7352 19.3757C12.4743 18.2317 11.5705 17.3448 10.4217 17.1056L2.60867 15.479C1.5471 15.258 1.5471 13.742 2.60867 13.521L10.4217 11.8944C11.5705 11.6552 12.4743 10.7683 12.7352 9.62427L14.525 1.77439Z" stroke="#10689B" stroke-width="2"/>
</svg>
