<svg width="64" height="64" viewBox="0 0 64 64" fill="none" xmlns="http://www.w3.org/2000/svg">
<path d="M57 2H7C4.23858 2 2 4.23858 2 7V57C2 59.7614 4.23858 62 7 62H57C59.7614 62 62 59.7614 62 57V7C62 4.23858 59.7614 2 57 2Z" stroke="#10689B" stroke-width="4" stroke-miterlimit="10"/>
<path d="M15.5591 40.8774C13.4803 42.9718 13.4803 46.3349 15.5591 48.4292C17.638 50.5236 20.9761 50.5236 23.055 48.4292" stroke="#10689B" stroke-width="4" stroke-miterlimit="10" stroke-linecap="round" stroke-linejoin="round"/>
<path d="M15.5591 40.8774L38.1865 18.0811C37.4669 17.3562 37.5469 16.2687 38.2665 15.5437C38.6263 15.1813 39.106 15 39.5657 15C40.0455 15 40.5052 15.1813 40.865 15.5437L48.181 22.9143C48.9006 23.6392 48.9006 24.8073 48.181 25.5322C47.8212 25.8947 47.3414 26.0759 46.8817 26.0759C46.4219 26.0759 46.0222 25.9753 45.6624 25.6128L23.0349 48.4091" stroke="#10689B" stroke-width="4" stroke-miterlimit="10" stroke-linecap="round" stroke-linejoin="round"/>
<path d="M27.6924 28.6738H42.6641" stroke="#10689B" stroke-width="4" stroke-miterlimit="10" stroke-linecap="round" stroke-linejoin="round"/>
<path d="M46.8817 44.8043C48.6007 44.8043 50 43.3946 50 41.6627C50 41.0586 49.84 40.5753 49.6801 40.0517L49.86 40.6961C49.8001 40.4544 49.7201 40.2128 49.6401 39.9107C49.6401 39.9107 47.3814 34.0103 46.7817 34.0103C46.1621 34.0103 44.0433 40.0315 44.0433 40.0315C43.8834 40.5753 43.7834 41.0586 43.7834 41.6627C43.7634 43.3946 45.1627 44.8043 46.8817 44.8043ZM46.8817 44.8043C47.5014 44.8043 48.101 44.6029 48.6007 44.2807" stroke="#10689B" stroke-width="4" stroke-miterlimit="10" stroke-linecap="round" stroke-linejoin="round"/>
</svg>
