<svg width="74" height="74" viewBox="0 0 74 74" fill="none" xmlns="http://www.w3.org/2000/svg">
<path d="M67 2H7C4.23858 2 2 4.23858 2 7V67C2 69.7614 4.23858 72 7 72H67C69.7614 72 72 69.7614 72 67V7C72 4.23858 69.7614 2 67 2Z" stroke="#10689B" stroke-width="4" stroke-miterlimit="10"/>
<path d="M40.6868 38.675L50.1835 53.3334H24.2601L33.7568 38.675V23.0187L31.4001 20.6667H43.0435L40.6868 23.0187V38.675Z" stroke="#10689B" stroke-width="4" stroke-miterlimit="10" stroke-linecap="round" stroke-linejoin="round"/>
<path d="M31.0033 42.9512H43.4399" stroke="#10689B" stroke-width="4" stroke-miterlimit="10" stroke-linecap="round" stroke-linejoin="round"/>
<path d="M24.8203 47.1326C24.0736 47.2989 23.2803 47.3464 22.4869 47.2514C19.5236 46.9188 16.5602 44.0441 16.0935 41.0507C15.5802 37.7008 17.2835 34.6836 19.9435 33.2582C20.1535 33.1394 20.2936 32.9256 20.2936 32.688V27.3425H26.3369V32.4504C26.3369 32.8305 26.5236 33.1631 26.8502 33.3532C29.0902 34.6123 30.6302 37.0594 30.6302 39.8628" stroke="#10689B" stroke-width="4" stroke-miterlimit="10" stroke-linecap="round" stroke-linejoin="round"/>
<path d="M16.5603 36.988H30.0703" stroke="#10689B" stroke-width="4" stroke-miterlimit="10" stroke-linecap="round" stroke-linejoin="round"/>
<path d="M44.7936 41.1219V27.7463H58.0002L56.3669 30.2171V47.0375H49.1335" stroke="#10689B" stroke-width="4" stroke-miterlimit="10" stroke-linecap="round" stroke-linejoin="round"/>
<path d="M56.3669 35.4199H44.7936" stroke="#10689B" stroke-width="4" stroke-miterlimit="10" stroke-linecap="round" stroke-linejoin="round"/>
</svg>
