<svg width="264" height="224" viewBox="0 0 264 224" fill="none" xmlns="http://www.w3.org/2000/svg">
<path d="M259.745 143.107C260.28 143.247 260.826 142.928 260.967 142.394L263.258 133.691C263.399 133.157 263.08 132.61 262.546 132.469C262.011 132.328 261.465 132.647 261.324 133.182L259.288 140.918L251.551 138.882C251.017 138.741 250.47 139.06 250.329 139.594C250.189 140.128 250.508 140.675 251.042 140.816L259.745 143.107ZM134.68 43.7041L133.937 43.0356L134.68 43.7041ZM154.119 98.0005L154.492 97.0726L154.119 98.0005ZM206.233 79.6413L205.349 79.1734L206.233 79.6413ZM154.119 3.86175L154.39 2.89916L154.119 3.86175ZM2.32897 145.265L3.31281 145.086L2.32897 145.265ZM51.9611 223C52.4056 222.104 52.4057 222.104 52.4058 222.104C52.4058 222.104 52.4058 222.104 52.4059 222.104C52.4059 222.104 52.406 222.104 52.406 222.104C52.4061 222.104 52.4062 222.104 52.4061 222.104C52.4061 222.104 52.4058 222.104 52.4053 222.104C52.4042 222.104 52.4023 222.103 52.3994 222.101C52.3937 222.098 52.3844 222.094 52.3715 222.087C52.3458 222.074 52.3058 222.053 52.2521 222.025C52.1448 221.969 51.9826 221.883 51.7695 221.765C51.3433 221.529 50.7135 221.168 49.9118 220.672L48.8597 222.373C49.6904 222.887 50.3483 223.264 50.8017 223.515C51.0284 223.64 51.2039 223.734 51.3244 223.797C51.3846 223.829 51.4311 223.852 51.4633 223.869C51.4794 223.877 51.4919 223.883 51.5008 223.888C51.5053 223.89 51.5088 223.892 51.5114 223.893C51.5127 223.894 51.5138 223.894 51.5147 223.895C51.5151 223.895 51.5155 223.895 51.5158 223.895C51.516 223.895 51.5161 223.896 51.5162 223.896C51.5163 223.896 51.5164 223.896 51.5164 223.896C51.5165 223.896 51.5166 223.896 51.9611 223ZM45.0816 217.376C43.6891 216.342 42.1458 215.126 40.4942 213.716L39.1952 215.236C40.883 216.678 42.4622 217.922 43.8894 218.982L45.0816 217.376ZM36.1359 209.748C34.8012 208.455 33.4269 207.05 32.0303 205.528L30.5565 206.88C31.9805 208.432 33.3824 209.865 34.7445 211.185L36.1359 209.748ZM28.1809 201.082C26.9832 199.618 25.7809 198.066 24.5842 196.426L22.9683 197.604C24.1872 199.275 25.4121 200.856 26.6326 202.348L28.1809 201.082ZM21.2372 191.565C20.1984 189.966 19.1716 188.295 18.1637 186.55L16.4319 187.551C17.4574 189.326 18.5025 191.027 19.56 192.655L21.2372 191.565ZM15.3424 181.362C14.4711 179.657 13.6208 177.891 12.7967 176.061L10.9731 176.882C11.8108 178.742 12.6754 180.538 13.5616 182.272L15.3424 181.362ZM10.505 170.624C9.79841 168.829 9.11817 166.979 8.46836 165.073L6.57534 165.718C7.23517 167.654 7.9261 169.533 8.64402 171.357L10.505 170.624ZM6.69424 159.459C6.15457 157.61 5.6438 155.713 5.16508 153.766L3.22294 154.244C3.70848 156.218 4.22667 158.143 4.77435 160.02L6.69424 159.459ZM3.87486 148.008C3.6796 147.045 3.49214 146.071 3.31281 145.086L1.34513 145.444C1.52685 146.443 1.71683 147.43 1.91474 148.406L3.87486 148.008ZM3.31281 145.086C3.13709 144.12 2.97948 143.153 2.83971 142.184L0.860199 142.47C1.00345 143.462 1.16499 144.454 1.34513 145.444L3.31281 145.086ZM2.21245 136.35C2.07304 134.397 2.00302 132.44 2.0001 130.481L9.78112e-05 130.484C0.00308937 132.489 0.0747483 134.492 0.217528 136.492L2.21245 136.35ZM2.18975 124.608C2.31775 122.658 2.5098 120.708 2.76365 118.76L0.780411 118.501C0.521169 120.491 0.324906 122.483 0.194042 124.477L2.18975 124.608ZM3.70188 112.955C4.07173 111.036 4.49968 109.121 4.98358 107.211L3.04484 106.72C2.55171 108.666 2.11533 110.619 1.73803 112.577L3.70188 112.955ZM6.58769 101.542C7.17136 99.6741 7.80717 97.8133 8.49305 95.9614L6.61755 95.2668C5.91994 97.1503 5.27292 99.0439 4.67871 100.946L6.58769 101.542ZM10.6742 90.4921C11.4429 88.693 12.2579 86.9044 13.1172 85.1279L11.3168 84.257C10.4442 86.061 9.61629 87.8779 8.83509 89.7062L10.6742 90.4921ZM15.805 79.8754C16.7369 78.1497 17.7098 76.4375 18.7219 74.7406L17.0042 73.7161C15.9778 75.4371 14.9908 77.174 14.0452 78.9252L15.805 79.8754ZM21.8498 69.734C22.9226 68.0922 24.0317 66.4667 25.1752 64.8594L23.5455 63.7C22.387 65.3286 21.263 66.9758 20.1755 68.64L21.8498 69.734ZM28.6909 60.114C29.8912 58.557 31.1234 57.0194 32.3858 55.5027L30.8487 54.2233C29.5704 55.7589 28.3226 57.316 27.107 58.8929L28.6909 60.114ZM36.2486 51.0319C37.5617 49.5671 38.9028 48.1245 40.2702 46.7057L38.8302 45.3178C37.4461 46.7539 36.0886 48.2141 34.7594 49.6969L36.2486 51.0319ZM44.4463 42.5251C45.8634 41.1564 47.3048 39.8129 48.7689 38.4962L47.4315 37.0091C45.9498 38.3417 44.491 39.7014 43.0569 41.0866L44.4463 42.5251ZM53.2307 34.6253C54.7437 33.3593 56.2777 32.1218 57.8309 30.9144L56.6034 29.3354C55.0312 30.5576 53.4785 31.8101 51.9472 33.0914L53.2307 34.6253ZM62.5616 27.3727C64.1629 26.2189 65.7818 25.0972 67.4165 24.0091L66.3083 22.3442C64.6528 23.4461 63.0136 24.5819 61.3924 25.7501L62.5616 27.3727ZM72.3894 20.8329C74.0756 19.8007 75.776 18.8046 77.4888 17.8463L76.5123 16.1009C74.7764 17.0722 73.0534 18.0814 71.3452 19.1271L72.3894 20.8329ZM82.701 15.0664C84.4636 14.1721 86.2369 13.3185 88.0188 12.5071L87.19 10.6869C85.382 11.5102 83.5834 12.3761 81.7961 13.2829L82.701 15.0664ZM93.4362 10.1825C95.2685 9.44409 97.1076 8.75145 98.9515 8.10631L98.291 6.21852C96.4172 6.87412 94.5491 7.5777 92.6886 8.32741L93.4362 10.1825ZM104.568 6.29373C106.464 5.73337 108.363 5.22472 110.262 4.76965L109.796 2.8247C107.862 3.28807 105.93 3.80576 104.001 4.37573L104.568 6.29373ZM116.023 3.55531C117.964 3.20266 119.903 2.90805 121.838 2.67346L121.597 0.688005C119.622 0.927453 117.644 1.22802 115.665 1.58753L116.023 3.55531ZM127.69 2.14804C129.655 2.0344 131.614 1.98558 133.563 2.00367L133.581 0.00376093C131.587 -0.0147581 129.583 0.0352262 127.574 0.151375L127.69 2.14804ZM139.432 2.26521C141.388 2.42292 143.331 2.65181 145.259 2.95408L145.569 0.978216C143.59 0.668023 141.597 0.433325 139.592 0.271677L139.432 2.26521ZM151.01 4.08701C151.961 4.31365 152.907 4.55933 153.848 4.82434L154.39 2.89916C153.423 2.6268 152.45 2.37436 151.474 2.14153L151.01 4.08701ZM153.848 4.82434C154.787 5.08868 155.717 5.36376 156.638 5.64928L157.231 3.73899C156.293 3.44827 155.346 3.16823 154.39 2.89916L153.848 4.82434ZM162.13 7.5142C163.968 8.19428 165.764 8.91699 167.516 9.67963L168.314 7.84583C166.527 7.06812 164.697 6.33147 162.824 5.63852L162.13 7.5142ZM172.758 12.1453C174.506 13.0316 176.203 13.9592 177.847 14.9249L178.86 13.2004C177.18 12.2136 175.447 11.2662 173.662 10.3614L172.758 12.1453ZM182.741 18.0176C184.361 19.118 185.918 20.2573 187.409 21.4317L188.647 19.8603C187.117 18.6563 185.522 17.4895 183.865 16.3633L182.741 18.0176ZM191.818 25.1773C193.26 26.5012 194.624 27.8603 195.908 29.2503L197.377 27.8935C196.055 26.462 194.652 25.064 193.17 23.7041L191.818 25.1773ZM199.624 33.6527C200.814 35.2013 201.907 36.7796 202.9 38.382L204.6 37.3284C203.571 35.6671 202.439 34.034 201.21 32.4342L199.624 33.6527ZM205.655 43.4231C206.488 45.1765 207.203 46.9506 207.795 48.7391L209.693 48.1107C209.074 46.241 208.329 44.3902 207.462 42.5651L205.655 43.4231ZM209.223 54.2742C209.572 56.1578 209.784 58.0502 209.853 59.9445L211.852 59.8715C211.779 57.8768 211.556 55.8868 211.189 53.9094L209.223 54.2742ZM209.626 65.639C209.407 67.5085 209.042 69.3745 208.528 71.2302L210.455 71.7645C210.997 69.81 211.381 67.8433 211.612 65.8721L209.626 65.639ZM206.599 76.6006C206.217 77.4618 205.801 78.3197 205.349 79.1734L207.116 80.1091C207.59 79.215 208.027 78.3155 208.428 77.4115L206.599 76.6006ZM205.349 79.1734C204.903 80.0147 204.409 80.8423 203.868 81.6537L205.532 82.7628C206.109 81.8976 206.638 81.0123 207.116 80.1091L205.349 79.1734ZM200.228 86.1728C198.911 87.551 197.458 88.8552 195.891 90.0701L197.117 91.6506C198.758 90.3783 200.285 89.0081 201.674 87.5546L200.228 86.1728ZM191.038 93.3351C189.366 94.3078 187.614 95.1858 185.801 95.9561L186.583 97.7968C188.472 96.9941 190.299 96.0789 192.044 95.0639L191.038 93.3351ZM180.279 97.9096C178.404 98.4446 176.491 98.8637 174.56 99.1552L174.859 101.133C176.877 100.828 178.873 100.391 180.828 99.8329L180.279 97.9096ZM168.736 99.6358C166.789 99.6612 164.843 99.5478 162.916 99.2847L162.646 101.266C164.675 101.543 166.72 101.662 168.762 101.636L168.736 99.6358ZM157.234 98.0411C156.31 97.758 155.396 97.4357 154.492 97.0726L153.747 98.9284C154.703 99.3129 155.671 99.654 156.648 99.9533L157.234 98.0411ZM154.492 97.0726C153.609 96.7177 152.75 96.3489 151.914 95.9672L151.083 97.7864C151.947 98.1811 152.835 98.5621 153.747 98.9284L154.492 97.0726ZM146.946 93.3898C145.28 92.4115 143.732 91.3752 142.298 90.29L141.091 91.8846C142.589 93.0183 144.202 94.0978 145.933 95.1145L146.946 93.3898ZM138.088 86.65C136.729 85.3053 135.515 83.909 134.442 82.4742L132.84 83.6725C133.975 85.188 135.254 86.6586 136.68 88.0713L138.088 86.65ZM131.491 77.7925C130.62 76.119 129.916 74.4138 129.374 72.6943L127.467 73.2956C128.044 75.127 128.793 76.94 129.717 78.7159L131.491 77.7925ZM128.202 67.3106C127.975 65.4664 127.925 63.6254 128.046 61.8086L126.05 61.6764C125.921 63.6186 125.975 65.5855 126.217 67.5545L128.202 67.3106ZM128.93 56.3786C129.397 54.6042 130.033 52.8762 130.831 51.2165L129.029 50.3492C128.175 52.124 127.495 53.9722 126.996 55.87L128.93 56.3786ZM133.678 46.5076C134.223 45.7737 134.805 45.0611 135.424 44.3725L133.937 43.0356C133.276 43.7706 132.654 44.5315 132.072 45.3156L133.678 46.5076ZM135.424 44.3725C136.099 43.6219 136.784 42.9253 137.479 42.2809L136.119 40.8145C135.378 41.5018 134.65 42.2418 133.937 43.0356L135.424 44.3725ZM141.996 38.8817C143.665 37.894 145.382 37.1521 147.141 36.6357L146.577 34.7167C144.657 35.2805 142.788 36.0892 140.977 37.1605L141.996 38.8817ZM152.701 35.7354C154.545 35.6617 156.432 35.7931 158.359 36.1153L158.689 34.1426C156.64 33.8001 154.614 33.6573 152.621 33.737L152.701 35.7354ZM163.915 37.5248C165.678 38.1158 167.465 38.8442 169.271 39.6989L170.127 37.8911C168.257 37.0064 166.397 36.2474 164.551 35.6285L163.915 37.5248ZM174.402 42.4279C176.031 43.3865 177.671 44.435 179.317 45.5649L180.449 43.9159C178.768 42.7622 177.089 41.6884 175.416 40.704L174.402 42.4279ZM184.04 49.0111C185.557 50.1816 187.077 51.4132 188.595 52.699L189.888 51.1726C188.348 49.8688 186.805 48.6181 185.262 47.4276L184.04 49.0111ZM193.003 56.5807C194.432 57.8868 195.858 59.2351 197.279 60.6197L198.675 59.1875C197.24 57.7889 195.798 56.4259 194.352 55.1043L193.003 56.5807ZM201.424 64.7756C202.778 66.1702 204.125 67.5931 205.463 69.0392L206.931 67.681C205.583 66.2239 204.225 64.7893 202.859 63.3824L201.424 64.7756ZM209.411 73.4013C210.71 74.8669 211.998 76.3499 213.273 77.8453L214.795 76.5477C213.512 75.0431 212.215 73.5505 210.908 72.0749L209.411 73.4013ZM217.051 82.3558C218.302 83.8751 219.538 85.4019 220.757 86.9312L222.321 85.6843C221.096 84.1472 219.853 82.6123 218.595 81.0845L217.051 82.3558ZM224.399 91.5675C225.611 93.1338 226.804 94.6975 227.975 96.253L229.573 95.0501C228.397 93.4878 227.199 91.917 225.981 90.3433L224.399 91.5675ZM231.487 100.979C232.663 102.583 233.814 104.172 234.936 105.74L236.562 104.576C235.436 103.002 234.281 101.407 233.1 99.7963L231.487 100.979ZM238.33 110.54C239.486 112.194 240.606 113.815 241.686 115.396L243.337 114.268C242.253 112.682 241.13 111.054 239.969 109.394L238.33 110.54ZM244.986 120.282C246.124 121.987 247.206 123.627 248.227 125.19L249.902 124.096C248.877 122.528 247.792 120.882 246.649 119.171L244.986 120.282ZM251.431 130.153C252.611 132.001 253.67 133.686 254.599 135.178L256.297 134.122C255.365 132.623 254.301 130.932 253.117 129.077L251.431 130.153ZM257.685 140.21C258.16 140.997 258.524 141.607 258.768 142.019C258.89 142.225 258.982 142.381 259.044 142.486C259.075 142.539 259.098 142.578 259.113 142.605C259.121 142.618 259.127 142.628 259.131 142.634C259.133 142.637 259.134 142.64 259.135 142.641C259.135 142.642 259.136 142.643 259.136 142.643C259.136 142.643 259.136 142.643 259.136 142.643C259.136 142.643 259.136 142.643 259.136 142.643C259.136 142.643 259.136 142.643 259.136 142.643C259.136 142.643 259.136 142.643 260 142.14C260.864 141.636 260.864 141.636 260.864 141.636C260.864 141.636 260.864 141.636 260.864 141.636C260.864 141.636 260.864 141.636 260.864 141.636C260.864 141.635 260.863 141.635 260.863 141.635C260.863 141.635 260.863 141.634 260.862 141.633C260.861 141.631 260.859 141.628 260.857 141.625C260.853 141.618 260.847 141.608 260.839 141.594C260.823 141.567 260.8 141.526 260.768 141.473C260.705 141.366 260.612 141.207 260.488 140.999C260.241 140.582 259.876 139.969 259.398 139.177L257.685 140.21Z" fill="#C1CEF9"/>
</svg>
